<?xml version="1.0" encoding="UTF-8" standalone="no"?>
<svg
   xmlns:dc="http://purl.org/dc/elements/1.1/"
   xmlns:cc="http://creativecommons.org/ns#"
   xmlns:rdf="http://www.w3.org/1999/02/22-rdf-syntax-ns#"
   xmlns:svg="http://www.w3.org/2000/svg"
   xmlns="http://www.w3.org/2000/svg"
   xmlns:sodipodi="http://sodipodi.sourceforge.net/DTD/sodipodi-0.dtd"
   xmlns:inkscape="http://www.inkscape.org/namespaces/inkscape"
   width="210mm"
   height="297mm"
   viewBox="0 0 210 297"
   version="1.1"
   id="svg8"
   inkscape:version="1.0.1 (3bc2e813f5, 2020-09-07)"
   sodipodi:docname="friend.svg">
  <defs
     id="defs2" />
  <sodipodi:namedview
     id="base"
     pagecolor="#ffffff"
     bordercolor="#666666"
     borderopacity="1.0"
     inkscape:pageopacity="0.0"
     inkscape:pageshadow="2"
     inkscape:zoom="0.49497475"
     inkscape:cx="334.36527"
     inkscape:cy="648.98345"
     inkscape:document-units="mm"
     inkscape:current-layer="layer1"
     inkscape:document-rotation="0"
     showgrid="false"
     inkscape:window-width="1346"
     inkscape:window-height="729"
     inkscape:window-x="10"
     inkscape:window-y="10"
     inkscape:window-maximized="0" />
  <metadata
     id="metadata5">
    <rdf:RDF>
      <cc:Work
         rdf:about="">
        <dc:format>image/svg+xml</dc:format>
        <dc:type
           rdf:resource="http://purl.org/dc/dcmitype/StillImage" />
        <dc:title />
      </cc:Work>
    </rdf:RDF>
  </metadata>
  <g
     inkscape:label="Lag 1"
     inkscape:groupmode="layer"
     id="layer1">
    <g
       id="g191"
       transform="rotate(-90,113.71282,152.35798)"
       inkscape:export-filename="/home/martin/PycharmProjects/new_game/images/friend_u.png"
       inkscape:export-xdpi="5"
       inkscape:export-ydpi="5">
      <circle
         style="fill:#e9afaf;stroke-width:0.264583"
         id="path10"
         cx="145.31647"
         cy="-116.9614"
         r="57.69339"
         inkscape:export-xdpi="5.4629016"
         inkscape:export-ydpi="5.4629016"
         transform="rotate(90)"
         inkscape:export-filename="/home/martin/PycharmProjects/new_game/images/friend_r.png" />
      <circle
         style="fill:#f2f2f2;stroke-width:0.264583"
         id="path12"
         cx="117.9415"
         cy="-138.2726"
         r="13.316404"
         inkscape:export-xdpi="5.4629016"
         inkscape:export-ydpi="5.4629016"
         transform="rotate(90)"
         inkscape:export-filename="/home/martin/PycharmProjects/new_game/images/friend_r.png" />
      <circle
         style="fill:#f2f2f2;stroke-width:0.264583"
         id="path12-3"
         cx="171.60568"
         cy="-138.86412"
         r="13.316405"
         inkscape:export-xdpi="5.4629016"
         inkscape:export-ydpi="5.4629016"
         transform="rotate(90)"
         inkscape:export-filename="/home/martin/PycharmProjects/new_game/images/friend_r.png" />
      <circle
         style="fill:#000000;stroke-width:0.264583"
         id="path29"
         cx="172.4875"
         cy="-142.22514"
         r="3.120703"
         inkscape:export-xdpi="5.4629016"
         inkscape:export-ydpi="5.4629016"
         transform="rotate(90)"
         inkscape:export-filename="/home/martin/PycharmProjects/new_game/images/friend_r.png" />
      <circle
         style="fill:#000000;stroke-width:0.264583"
         id="path29-6"
         cx="120.06831"
         cy="-141.43631"
         r="3.120703"
         inkscape:export-xdpi="5.4629016"
         inkscape:export-ydpi="5.4629016"
         transform="rotate(90)"
         inkscape:export-filename="/home/martin/PycharmProjects/new_game/images/friend_r.png" />
      <ellipse
         style="fill:#ff8080;stroke-width:0.264583"
         id="path46"
         cx="143.52907"
         cy="-165.94667"
         rx="6.8668981"
         ry="13.374345"
         inkscape:export-xdpi="5.4629016"
         inkscape:export-ydpi="5.4629016"
         transform="rotate(90)"
         inkscape:export-filename="/home/martin/PycharmProjects/new_game/images/friend_r.png" />
      <path
         style="fill:#ffb380;stroke-width:0.264583"
         id="path48"
         d="m 115.39015,108.05948 c -0.0716,3.67489 0.18973,7.34685 0.19706,11.02212 0.003,1.29352 -0.032,2.58685 -0.048,3.88028 -0.14733,4.52336 -0.58622,9.03549 -1.27999,13.50723 -0.28981,1.86802 -0.61848,3.57032 -0.96208,5.42655 -1.01673,4.85001 -1.57876,9.77799 -2.1531,14.69533 -0.16735,2.23446 -0.63454,4.44377 -0.78859,6.67918 -0.0636,0.92266 -0.0259,1.29336 0.007,2.21666 0.0711,1.18716 0.26087,2.36264 0.29838,3.55217 0.0214,0.67846 0.005,1.01012 -0.0114,1.67515 -0.10011,1.67984 -0.13271,3.36545 -0.0626,5.04695 0.16272,1.90303 0.67244,3.75474 1.19952,5.58384 0.24835,0.77554 0.11975,0.4166 0.37705,1.07992 0,0 1.62812,2.06003 1.62812,2.06003 v 0 c -0.32882,-0.70448 -0.16985,-0.32435 -0.46483,-1.14535 -0.57063,-1.81697 -1.12607,-3.65529 -1.26448,-5.56565 -0.0716,-1.67632 -0.0741,-3.35171 0.061,-5.02536 0.003,-0.85962 0.0381,-1.73055 -0.0164,-2.58897 -0.0417,-0.65636 -0.13672,-1.05901 -0.21972,-1.71714 -0.0431,-0.34206 -0.0746,-0.68548 -0.11196,-1.02821 -0.14853,-3.10803 0.13708,-6.21136 0.44693,-9.30263 0.56135,-4.94615 1.14144,-9.89376 2.07508,-14.78668 0.4168,-2.42803 0.54997,-3.07708 0.88404,-5.55054 0.61639,-4.56377 0.95948,-9.15873 1.11831,-13.76049 0.0427,-1.25845 0.0962,-2.51658 0.12815,-3.77534 0.0988,-3.8895 -0.0141,-2.68319 0.16567,-6.27643 0.0655,-1.30856 0.0967,-1.95448 0.28595,-3.14383 0.0268,-0.16872 0.0726,-0.33388 0.10896,-0.50083 0,0 -1.5984,-2.25796 -1.5984,-2.25796 z"
         inkscape:export-xdpi="5.4629016"
         inkscape:export-ydpi="5.4629016"
         inkscape:export-filename="/home/martin/PycharmProjects/new_game/images/friend_r.png" />
      <path
         style="fill:#ffb380;stroke-width:0.264583"
         id="path68"
         d="m 111.08345,105.10915 c -0.0312,0.25349 -0.0569,0.50769 -0.0935,0.76046 -0.25875,1.78976 -0.24113,1.41195 -0.57294,3.45431 -0.57713,3.55235 -0.31803,2.2202 -0.92011,6.1305 -0.19211,1.2476 -0.40121,2.49252 -0.60182,3.73878 -0.91089,5.70849 -1.75406,11.43825 -2.26521,17.19884 -0.29318,3.30416 -0.37487,5.48706 -0.54462,8.79187 -0.0567,1.4663 -0.11796,2.93243 -0.17005,4.3989 -0.12537,3.52898 -0.17939,4.93975 -0.18529,8.44017 -0.006,3.5659 0.12226,7.12425 0.26441,10.68644 0.18559,2.42576 0.1127,4.87329 0.3386,7.2967 0.0673,0.72223 0.19641,1.40525 0.31639,2.12079 0.16433,0.93419 0.33533,1.86727 0.48849,2.80339 0.0793,0.48445 0.14764,0.83664 0.15191,1.33059 0.002,0.26902 -0.0239,0.53753 -0.0359,0.80629 -0.20414,1.28102 -0.0747,0.6456 -0.38851,1.90623 0,0 1.38534,2.01134 1.38534,2.01134 v 0 c 0.3329,-1.25388 0.17837,-0.62967 0.46465,-1.87234 0.0735,-0.64441 0.13675,-0.85199 0.0652,-1.48302 -0.0268,-0.23609 -0.0873,-0.46713 -0.13335,-0.70023 -0.1905,-0.96418 -0.40062,-1.92464 -0.564,-2.89407 -0.11211,-0.71357 -0.24014,-1.42461 -0.34779,-2.13886 -0.39755,-2.63774 -0.59046,-5.3033 -0.83757,-7.95738 -0.076,-1.10782 -0.1671,-2.21469 -0.2281,-3.32343 -0.12003,-2.18159 -0.22965,-5.48502 -0.25417,-7.64754 -0.0386,-3.4026 0.009,-5.09585 0.12501,-8.51717 0.0498,-1.46374 0.11662,-2.92686 0.17494,-4.3903 0.17395,-3.69296 0.20241,-5.10867 0.53059,-8.80129 0.50596,-5.69291 1.32879,-11.35998 2.4164,-16.9699 0.83657,-4.34432 1.58906,-8.72842 2.97691,-12.93991 0,0 -1.55598,-2.24016 -1.55598,-2.24016 z"
         inkscape:export-xdpi="5.4629016"
         inkscape:export-ydpi="5.4629016"
         inkscape:export-filename="/home/martin/PycharmProjects/new_game/images/friend_r.png" />
      <path
         style="fill:#ffb380;stroke-width:0.264583"
         id="path70"
         d="m 106.09359,95.052558 c -0.0239,0.527156 -0.0391,1.054777 -0.0717,1.581473 -0.15354,2.484226 -0.25571,3.381649 -0.52461,6.026889 -0.5155,5.07115 -1.13796,10.12321 -1.79252,15.17809 -0.89655,6.6887 -1.59464,13.40398 -2.04248,20.13795 -0.18856,2.83523 -0.31049,5.58918 -0.44817,8.4244 -0.0459,1.2153 -0.0978,2.43038 -0.13759,3.64589 -0.0366,1.11832 -0.0806,2.23664 -0.0913,3.35551 -0.0219,2.28402 0.058,4.38769 0.12641,6.67244 0.16065,5.36461 0.0603,1.55264 0.18866,6.80636 0.018,1.03698 0.0392,2.07392 0.054,3.11096 0.0318,2.21543 0.0398,3.07702 0.027,5.21548 -0.01,1.6236 -0.0424,3.24472 -0.0265,4.86834 0.0628,2.07713 0.36103,4.13746 0.59101,6.20056 0.0551,0.56153 0.19964,1.11073 0.23598,1.67443 0.0137,0.21239 0.0427,1.34121 0.0472,1.50423 0.0112,0.26092 0.0224,0.52185 0.0336,0.78278 0,0 1.49169,2.03219 1.49169,2.03219 v 0 c -0.0143,-0.25991 -0.0286,-0.51982 -0.0429,-0.77973 0.001,-0.25586 -0.004,-0.5118 0.004,-0.76756 0.002,-0.077 0.0588,-0.91913 0.0459,-1.08014 -0.0353,-0.44083 -0.24892,-0.866 -0.27706,-1.30878 -0.34061,-2.13211 -0.7155,-4.26556 -0.79147,-6.42824 -0.21565,-4.60616 -0.37001,-9.215 -0.51452,-13.82387 -0.21399,-6.90008 -0.4403,-13.80397 -0.26197,-20.70773 0.034,-1.37818 0.0554,-2.75673 0.10208,-4.13454 0.28165,-8.31381 0.94525,-16.61484 2.07011,-24.85821 0.56512,-3.92184 0.90217,-6.39894 1.53697,-10.27837 0.23079,-1.41045 0.48649,-2.8167 0.73241,-4.22459 0.12249,-0.70126 0.76696,-4.383445 0.96829,-5.402803 0.0846,-0.428085 0.18957,-0.851871 0.28436,-1.277805 0,0 -1.51636,-2.145604 -1.51636,-2.145604 z"
         inkscape:export-xdpi="5.4629016"
         inkscape:export-ydpi="5.4629016"
         inkscape:export-filename="/home/martin/PycharmProjects/new_game/images/friend_r.png" />
      <path
         style="fill:#ffb380;stroke-width:0.264583"
         id="path72"
         d="m 98.8329,101.01083 c -0.31244,6.40222 -0.90466,12.78614 -1.4092,19.17489 -0.8239,10.43275 -0.21649,3.2694 -1.10002,13.32265 -0.65102,7.06414 -1.47703,14.11541 -1.92281,21.19735 -0.24552,3.90062 -0.2271,4.60628 -0.31896,8.41913 -0.12483,5.07239 0.21225,10.13989 0.2508,15.21006 0.006,0.79237 -0.0128,1.58474 -0.0191,2.37711 -0.13781,3.66411 -0.68567,7.29384 -0.88692,10.95424 -0.0487,1.14217 0.0587,2.27189 0.40251,3.36131 0,0 1.65289,2.11558 1.65289,2.11558 v 0 c -0.47283,-1.15808 -0.71032,-2.3697 -0.71854,-3.62605 0.003,-1.41458 -0.0159,-1.61163 0.0771,-3.09581 0.17144,-2.73566 0.60936,-5.4544 0.56877,-8.20226 -0.0945,-6.04588 -0.49593,-12.08122 -0.62611,-18.12621 0.006,-3.91074 -0.0305,-4.66058 0.13795,-8.66111 0.30586,-7.2619 1.07745,-14.49177 1.53037,-21.74417 0.53963,-7.09357 0.41131,-6.08855 1.16585,-13.22968 0.61947,-5.86271 1.31317,-11.73628 2.5986,-17.49686 0,0 -1.38318,-1.95017 -1.38318,-1.95017 z"
         inkscape:export-xdpi="5.4629016"
         inkscape:export-ydpi="5.4629016"
         inkscape:export-filename="/home/martin/PycharmProjects/new_game/images/friend_r.png" />
      <path
         style="fill:#ffb380;stroke-width:0.264583"
         id="path74"
         d="m 94.37517,100.48621 c -0.31332,5.83626 -0.46981,11.68152 -0.81778,17.51602 -0.36888,6.18523 -0.61821,8.43021 -1.1744,14.60762 -0.86693,8.96247 -1.80928,17.91797 -2.61105,26.88671 -0.60226,7.09324 -0.30217,3.6718 -0.89641,10.26464 -0.45924,5.47666 -1.09876,10.93514 -1.45809,16.41976 -0.11829,2.18678 -0.0605,1.14313 -0.17276,3.131 0,0 1.31545,1.82257 1.31545,1.82257 v 0 c 0.0165,-2.10047 -7.9e-4,-1.00544 0.0567,-3.28502 0.20956,-5.7945 0.56336,-11.5832 0.76699,-17.37812 0.29417,-5.61844 0.5966,-11.23887 1.03615,-16.84827 0.4181,-5.33575 0.75318,-8.38602 1.28421,-13.75186 0.23802,-2.405 0.47445,-4.81016 0.71167,-7.21525 0.62109,-6.89764 1.14977,-13.80357 1.95163,-20.68341 0.34544,-2.96388 0.58367,-5.01476 1.14538,-7.83255 0.10141,-0.50871 0.25174,-1.00642 0.37761,-1.50964 0,0 -1.51535,-2.1442 -1.51535,-2.1442 z"
         inkscape:export-xdpi="5.4629016"
         inkscape:export-ydpi="5.4629016"
         inkscape:export-filename="/home/martin/PycharmProjects/new_game/images/friend_r.png" />
      <path
         style="fill:#ffb380;stroke-width:0.264583"
         id="path76"
         d="m 87.43994,100.27577 c -0.61954,8.56218 -1.77268,17.07217 -2.87415,25.58209 -1.29149,9.69034 -2.63797,19.37356 -4.23674,29.01842 -0.65529,4.10715 -1.50904,8.19594 -1.85456,12.34715 -0.16914,2.03218 -0.1803,3.66589 -0.22939,5.69331 0.0375,2.99217 0.0982,6.00731 0.59928,8.96458 0.11647,0.58951 0.0608,0.31487 0.16595,0.82413 0,0 1.62625,2.13154 1.62625,2.13154 v 0 c -0.15203,-0.56867 -0.07,-0.26206 -0.24621,-0.91981 -0.79883,-3.13486 -1.03304,-6.38148 -1.1353,-9.6057 0.0194,-2.56813 -0.0215,-3.13402 0.18523,-5.72828 0.33793,-4.24076 1.07057,-8.43918 1.63063,-12.65254 0.41473,-2.956 0.72897,-5.09534 1.08798,-8.08306 0.86802,-7.22368 1.54237,-14.4719 2.634,-21.66808 1.1358,-7.93805 2.15612,-15.92862 4.17582,-23.70243 0,0 -1.52879,-2.20132 -1.52879,-2.20132 z"
         inkscape:export-xdpi="5.4629016"
         inkscape:export-ydpi="5.4629016"
         inkscape:export-filename="/home/martin/PycharmProjects/new_game/images/friend_r.png" />
      <path
         style="fill:#ffb380;stroke-width:0.264583"
         id="path78"
         d="m 81.9972,106.99917 c -0.17907,0.96275 -0.0996,0.47982 -0.28564,2.0239 -0.4776,3.96294 -0.56608,5.0964 -1.22406,9.43104 -0.83331,5.48965 -1.30767,7.81864 -2.31952,13.31385 -1.95257,9.87449 -3.88702,19.75237 -5.75618,29.64302 -0.64157,3.47325 -1.38894,6.92574 -2.35859,10.32238 -0.12535,0.46905 -0.29163,0.92834 -0.37345,1.40805 0,0 1.69903,2.20536 1.69903,2.20536 v 0 c -0.0308,-0.0382 -0.0802,-0.067 -0.0924,-0.11454 -0.12098,-0.47093 0.16267,-1.00988 0.17278,-1.46728 0.69265,-3.70674 1.29587,-7.43144 1.78393,-11.17074 1.36591,-10.29437 2.99137,-20.55393 4.97967,-30.74773 0.94801,-4.76788 1.58406,-8.13354 2.64705,-12.84524 0.73722,-3.26771 1.50873,-6.55815 2.6886,-9.70101 0,0 -1.56125,-2.30106 -1.56125,-2.30106 z"
         inkscape:export-xdpi="5.4629016"
         inkscape:export-ydpi="5.4629016"
         inkscape:export-filename="/home/martin/PycharmProjects/new_game/images/friend_r.png" />
      <path
         style="fill:#ffb380;stroke-width:0.264583"
         id="path80"
         d="m 76.97267,113.00673 c -0.0998,0.49575 -0.21639,0.98842 -0.29944,1.48725 -0.7006,4.20795 -0.3393,3.12343 -1.36762,7.8039 -1.05416,4.79813 -2.45726,9.50576 -3.84497,14.21439 -0.99166,3.42874 -2.1941,6.79492 -3.13698,10.23826 -0.65039,2.3752 -1.13134,4.78667 -1.60985,7.20043 -0.52663,2.55824 -0.95088,5.13597 -1.39288,7.70977 0,0 1.3734,1.94545 1.3734,1.94545 v 0 c 0.28277,-2.70205 0.66983,-5.39186 1.12872,-8.06964 0.31101,-1.89889 0.44478,-2.81167 0.82787,-4.73429 0.90734,-4.55362 2.12576,-9.03607 3.34071,-13.51487 1.28915,-4.7042 2.61286,-9.39773 3.93432,-14.09291 0.75251,-2.67368 1.1431,-4.31253 2.03396,-6.8161 0.14009,-0.39368 0.32969,-0.76796 0.49453,-1.15194 0,0 -1.48177,-2.2197 -1.48177,-2.2197 z"
         inkscape:export-xdpi="5.4629016"
         inkscape:export-ydpi="5.4629016"
         inkscape:export-filename="/home/martin/PycharmProjects/new_game/images/friend_r.png" />
      <path
         style="fill:#ffb380;stroke-width:0.264583"
         id="path82"
         d="m 67.89586,124.89674 c 0.60453,7.53333 -0.35397,15.08698 -1.25108,22.55643 -0.6888,5.1712 -1.57278,10.31165 -2.54381,15.43615 0,0 0.96424,1.36957 0.96424,1.36957 v 0 c 0.61676,-5.4225 1.26414,-10.84167 1.97075,-16.25328 0.86795,-6.94987 1.74311,-13.8998 2.49112,-20.86369 0,0 -1.63122,-2.24518 -1.63122,-2.24518 z"
         inkscape:export-xdpi="5.4629016"
         inkscape:export-ydpi="5.4629016"
         inkscape:export-filename="/home/martin/PycharmProjects/new_game/images/friend_r.png" />
      <path
         style="fill:#ffb380;stroke-width:0.264583"
         id="path86"
         d="m 112.19275,164.80277 c 0.10294,2.43504 0.52855,4.78349 1.3223,7.0838 1.13351,2.39211 2.00197,4.88257 2.87007,7.37849 0.70388,2.27427 1.75498,4.41138 2.628,6.62052 1.85965,4.08994 3.31905,9.51463 7.912,10.96286 0.98166,0.16644 0.50452,0.11029 1.43026,0.17799 0,0 -3.4682,-6.95011 -3.4682,-6.95011 v 0 c -0.79251,-0.0766 -0.388,-0.012 -1.21195,-0.20337 -0.66099,-0.28635 -0.79731,-0.29182 -1.38008,-0.78809 -0.24357,-0.20742 -0.81768,-0.96831 -0.67564,-0.68165 0.94737,1.91195 2.07827,3.72735 3.11021,5.59502 0.19398,0.35107 -0.41809,-0.68583 -0.59628,-1.04519 -0.19059,-0.38435 -0.33886,-0.78828 -0.50829,-1.18242 -0.81912,-2.23597 -1.86598,-4.36554 -2.64709,-6.61458 -0.88251,-2.46928 -1.61006,-5.00121 -2.82235,-7.34026 -0.86524,-2.14367 -1.43261,-4.36459 -1.37289,-6.69533 0,0 -4.59007,-6.31768 -4.59007,-6.31768 z"
         inkscape:export-xdpi="5.4629016"
         inkscape:export-ydpi="5.4629016"
         inkscape:export-filename="/home/martin/PycharmProjects/new_game/images/friend_r.png" />
      <path
         style="fill:#ffb380;stroke-width:0.264583"
         id="path88"
         d="m 121.46348,93.245576 c -1.93776,3.502623 -3.545,7.160994 -4.98513,10.891134 -1.66723,4.49857 -3.14745,9.0641 -4.40606,13.69312 -0.55311,2.16822 -0.8978,4.37788 -1.20424,6.59147 0,0 4.31068,6.07455 4.31068,6.07455 v 0 c 0.19563,-2.25571 0.46024,-4.50741 0.99293,-6.71286 1.1559,-4.71633 2.45971,-9.39992 4.10754,-13.97131 1.44367,-3.45685 2.95695,-7.05412 5.466,-9.892543 0,0 -4.28172,-6.673561 -4.28172,-6.673561 z"
         inkscape:export-xdpi="5.4629016"
         inkscape:export-ydpi="5.4629016"
         inkscape:export-filename="/home/martin/PycharmProjects/new_game/images/friend_r.png" />
      <path
         style="fill:#ffb380;stroke-width:0.264583"
         id="path90"
         d="m 131.40328,203.79561 c -2.15872,-5.00806 -4.70701,-9.93365 -8.04089,-14.26327 -2.03333,-2.48142 -4.58687,-4.42403 -7.21755,-6.22433 -1.91854,-1.27273 -3.96175,-2.4914 -5.45429,-4.27565 6.85063,11.1279 3.51643,7.00888 3.00939,4.40228 -0.18333,-0.94245 -0.2019,-1.90778 -0.23742,-2.86344 -1.1e-4,-3.24867 0.26671,-6.49463 0.52368,-9.73145 0.22166,-2.53684 0.0946,-1.33142 0.36933,-3.6175 0,0 -4.25661,-5.97868 -4.25661,-5.97868 v 0 c -0.18029,2.4288 -0.0944,1.16211 -0.25354,3.80037 -0.25092,3.13078 -0.78947,6.23949 -0.8733,9.37708 0.0546,5.59956 0.57018,5.38801 4.653,11.74774 1.66057,1.53178 3.62258,2.69957 5.48981,3.95616 2.56397,1.7803 5.03039,3.72124 6.94988,6.21209 2.07483,2.89852 1.32464,1.95656 -1.71868,-3.41892 -0.27143,-0.47945 0.55391,0.95296 0.80977,1.4409 0.5112,0.97489 0.74367,1.52032 1.12608,2.516 0.0921,0.23965 0.17117,0.48407 0.25675,0.72611 0,0 4.86459,6.19451 4.86459,6.19451 z"
         inkscape:export-xdpi="5.4629016"
         inkscape:export-ydpi="5.4629016"
         inkscape:export-filename="/home/martin/PycharmProjects/new_game/images/friend_r.png" />
      <path
         style="fill:#ffb380;stroke-width:0.264583"
         id="path92"
         d="m 113.33291,173.63954 c 0.47103,1.71345 1.47934,3.234 2.47752,4.68642 0.92384,1.57695 -0.37596,-0.67743 -0.58893,-1.00058 -0.12801,-0.19423 0.20608,0.41713 0.30556,0.62741 0.24571,0.5194 0.46972,1.04603 0.68112,1.58007 0.24506,0.6567 0.37989,1.34413 0.66974,1.98399 0.49529,0.85667 0.99717,1.70958 1.48588,2.57004 0.39661,0.69829 -0.80496,-1.38986 -1.20957,-2.08356 -0.046,-0.0788 0.088,0.15995 0.13366,0.23893 0.49382,0.85328 0.98841,1.70611 1.48491,2.55783 0.0462,0.0792 0.18881,0.31419 0.14301,0.23481 -0.40357,-0.69962 -0.81093,-1.39705 -1.2164,-2.09557 0.13555,0.15544 0.14677,0.39096 0.25123,0.55941 0.0663,0.1069 0.15504,-0.39429 0.23377,-0.29619 0.47762,0.59515 0.7699,1.31779 1.15485,1.97668 -0.47988,-1.02262 -0.95943,-2.0389 -1.51978,-3.02075 -0.94968,-1.73448 -1.96343,-3.4581 -3.31978,-4.90959 -0.11699,0.009 -0.25663,-0.0425 -0.35097,0.0273 -0.32876,0.24317 -0.37962,0.81341 -0.43181,1.14787 -0.10816,0.69311 -0.15655,1.39971 -0.23542,2.09684 -0.18321,1.17636 -0.18851,0.69047 1.54079,2.53931 0.11267,0.12046 0.002,-0.32988 0.004,-0.49481 0.003,-0.32466 -7.9e-4,-1.05245 0.0561,-1.37822 0.0219,-0.12511 0.0888,-0.23797 0.13325,-0.35695 0.0454,-0.0299 0.0821,-0.0845 0.13626,-0.0897 0.0695,-0.007 0.21435,0.18787 0.23113,0.20544 0.0721,0.0756 0.37156,0.35937 0.41567,0.41602 0.10698,0.13739 0.19226,0.29038 0.28839,0.43556 0.54095,0.70312 0.99331,1.86345 1.82783,2.26776 0.0823,-0.0653 0.2869,-0.0989 0.24673,-0.19591 -0.38433,-0.92831 -0.90998,-1.79349 -1.42702,-2.65497 -0.076,-0.12657 -0.22426,-0.19203 -0.33809,-0.28602 -0.50997,-0.4211 -1.05024,-0.79752 -1.58521,-1.18588 -0.49388,-0.33812 -0.94948,-0.74268 -1.46194,-1.05445 -0.0519,-0.0316 -0.29744,-0.17996 -0.41137,-0.12618 -0.0805,0.038 -0.13671,0.11393 -0.20507,0.17089 0.49094,0.82415 0.94483,1.67152 1.4728,2.47244 0.004,0.006 0.33834,0.028 0.33967,0.0281 0.0485,0.004 0.16728,0.0589 0.14526,0.0154 -1.34815,-2.65982 -0.47512,-2.56668 -1.87855,-2.49215 -0.39645,5.3e-4 -0.85076,0.0101 -1.24657,-0.0253 -0.12116,-0.0108 -0.23891,-0.0759 -0.35972,-0.0616 -0.0873,0.0104 -0.27392,0.056 -0.22874,0.13141 1.5312,2.55641 0.87906,2.25677 2.43104,2.61434 1.33809,0.3301 2.63258,0.8156 3.87754,1.40352 0.0467,0.0426 0.16697,0.18503 0.14017,0.12777 -0.40811,-0.87158 -0.79222,-1.7593 -1.28981,-2.58308 -0.0668,-0.11065 -0.24223,-0.0912 -0.35903,-0.1466 -0.16916,-0.0803 -0.33546,-0.16688 -0.49795,-0.25991 -0.59249,-0.33919 -0.43244,-0.23594 -0.87817,-0.70418 0.398,0.58015 0.62874,1.32156 1.19398,1.74045 0.20097,0.14894 0.0806,-0.49694 0.16751,-0.73148 0.17015,-0.45892 0.57808,-1.09406 0.84759,-1.49976 0.1338,-0.20142 0.29285,-0.38609 0.41721,-0.59348 0.0943,-0.15721 0.1576,-0.33101 0.23641,-0.49651 -0.0538,-1.36939 0.038,-0.90942 -1.73153,-2.9928 -0.14142,-0.16651 -0.41856,-0.12534 -0.6277,-0.18847 -0.62335,-0.18813 -0.92609,-0.26644 -1.4479,-0.64927 -0.67121,-0.86435 -0.30296,-0.40738 1.14229,1.96666 0.0397,0.0651 -0.0907,-0.0788 -0.071,-0.28894 0.0119,-0.12712 0.0758,-0.25958 0.1221,-0.37478 0.0832,-0.18205 0.21811,-0.76854 0.45784,-0.81727 0.0267,-0.005 0.0468,0.0278 0.0702,0.0418 0,0 -1.27528,-2.46941 -1.27528,-2.46941 v 0 c -0.0687,0.019 -0.14335,0.0233 -0.20625,0.0569 -0.32564,0.17404 -0.41566,0.59886 -0.56969,0.90009 -0.0902,0.19377 -0.21776,0.39599 -0.25348,0.60995 -0.18233,1.09197 0.76164,2.23176 1.66924,2.82736 0.47059,0.22607 0.96207,0.33889 1.44512,0.53156 0.2012,0.0802 0.63141,0.49184 0.58645,0.27994 -0.12306,-0.57994 -1.42361,-2.92959 -0.77124,-1.60264 -0.0485,0.17611 -0.0687,0.36263 -0.1456,0.52834 -0.10522,0.22676 -0.26283,0.42532 -0.39529,0.63733 -0.24531,0.39263 -0.70021,1.0955 -0.91479,1.50289 -0.1249,0.23711 -0.41442,0.47382 -0.33643,0.73021 0.30117,0.99009 0.93418,1.84694 1.40127,2.77041 0.13509,0.11293 0.26153,0.2371 0.40526,0.3388 0.13763,0.0974 0.91309,0.54587 1.05679,0.62876 0.14108,0.0814 0.46563,0.39955 0.42447,0.24197 -0.64009,-2.45032 -0.14473,-2.34213 -1.12919,-2.48516 -1.27579,-0.45518 -2.55962,-0.88298 -3.85166,-1.29004 -0.2305,-0.0884 -0.73564,-0.50809 -0.69149,-0.2652 0.14562,0.80101 0.77122,1.4409 1.04462,2.20777 0.0278,0.078 -0.32818,0.0435 -0.24632,0.0313 0.52357,-0.078 1.04749,-0.014 1.57119,0.0387 0.16389,0.0301 0.52876,0.25262 0.49168,0.0902 -0.19723,-0.86416 -0.65388,-1.64895 -1.03057,-2.4513 -0.0182,-0.0388 -0.0857,-0.007 -0.12757,-0.0155 -0.86862,-0.18497 -1.9582,-3.48259 1.10353,2.2354 -0.0745,0.0262 -0.14968,0.0505 -0.22352,0.0785 -0.008,0.003 0.0168,-0.006 0.0248,-0.003 0.0605,0.0174 0.12284,0.032 0.17839,0.0615 0.50205,0.26645 0.93923,0.6455 1.40743,0.96247 0.54455,0.40678 1.11775,0.80198 1.58583,1.29999 0.11189,0.11905 0.37613,0.53027 0.30658,0.38243 -1.06989,-2.27406 -1.97859,-2.04126 -0.93847,-2.22624 -0.67873,-0.39832 -1.16572,-1.55688 -1.64192,-2.16123 -0.23771,-0.3247 -0.82778,-1.29842 -1.40215,-0.973 -0.0913,0.0517 -0.14156,0.15497 -0.21234,0.23246 -0.0415,0.15716 -0.0989,0.31096 -0.12446,0.47148 -0.0682,0.42819 -0.0677,0.86473 -0.11862,1.29531 -0.0137,0.11615 -0.112,0.2453 -0.0538,0.34674 0.46176,0.80444 0.97782,1.5837 1.57114,2.29667 0.0867,0.10419 10e-4,-0.27112 0.002,-0.40667 0.029,-0.7025 0.0624,-1.4039 0.19084,-2.09718 0.0359,-0.19366 0.0885,-0.38393 0.13893,-0.57431 0.0223,-0.0842 0.0246,-0.1813 0.0794,-0.24913 0.0238,-0.0295 0.0756,0.007 0.11334,0.0103 0.32855,0.35021 0.62381,0.71732 0.91321,1.10088 0.51589,0.68373 1.78662,2.65204 -0.23325,-0.67273 0.55251,0.9499 1.04205,1.92584 1.47166,2.93765 0.50407,0.89514 0.92195,1.8446 1.51221,2.6854 0.10712,0.15259 0.44859,0.11032 0.46173,-0.0871 0.004,-0.0628 -0.10997,-0.36072 -0.12474,-0.39661 -0.0321,-0.0781 -0.07,-0.15376 -0.105,-0.23064 -0.49238,-0.85568 -0.98318,-1.71226 -1.47714,-2.56703 -0.0468,-0.0809 -0.19134,-0.32115 -0.14498,-0.23999 0.40178,0.70335 0.80732,1.40455 1.21129,2.10664 0.0458,0.0796 -0.091,-0.15964 -0.13683,-0.23928 -0.49366,-0.85808 -0.97472,-1.72355 -1.4816,-2.57388 -0.41078,-0.68912 0.79549,1.39343 1.19324,2.09015 -0.35658,-0.64419 -0.50199,-1.35244 -0.74588,-2.04203 -0.79308,-1.99901 -1.80947,-3.8897 -2.97171,-5.70279 -0.65833,-1.00597 -0.50248,-0.78951 0.71988,1.34202 0.08,0.13955 -0.15974,-0.27949 -0.23114,-0.42364 -0.11683,-0.23586 -0.21393,-0.47264 -0.28281,-0.72642 -0.0201,-0.0739 -0.0285,-0.15056 -0.0428,-0.22584 0,0 -1.68813,-2.21992 -1.68813,-2.21992 z"
         inkscape:export-xdpi="5.4629016"
         inkscape:export-ydpi="5.4629016"
         inkscape:export-filename="/home/martin/PycharmProjects/new_game/images/friend_r.png" />
      <path
         style="fill:#ff9955;stroke-width:0.264583"
         id="path94"
         d="m 110.47862,131.86488 c -1.33516,0.26095 -2.67299,0.51031 -4.01285,0.74639 -0.83395,0.17758 -1.6853,0.28478 -2.5129,0.49334 -0.28675,0.0723 -0.74562,-0.0292 -0.85219,0.24662 -0.48393,1.25267 -0.195,4.93325 -0.15544,6.02242 0.21951,4.36269 0.37625,8.72893 0.45596,13.09646 0.0357,0.46794 -0.008,0.93816 0.0157,1.40635 0.0891,1.73543 1.47561,3.34694 2.3364,4.61795 0.12343,0.18225 0.37421,0.23189 0.56131,0.34783 1.87392,0.99143 3.95272,1.51512 6.06909,1.61026 0.61803,0.0278 1.23729,-0.006 1.85593,-0.009 0.65966,-0.10173 1.33319,-0.13651 1.97897,-0.30519 2.21989,-0.57984 4.15429,-1.8145 5.57482,-3.62472 1.40453,-1.78985 1.62274,-2.73741 2.50364,-4.84941 0.68938,-2.26909 1.48497,-4.7707 1.3275,-7.18625 -0.0375,-0.57574 -0.0921,-1.17739 -0.34442,-1.69628 -0.71922,-1.47934 -1.5287,-2.93315 -2.53787,-4.23212 -0.36648,-0.47174 -1.0036,-0.64821 -1.5054,-0.97232 -0.7423,-0.14119 -1.47246,-0.38154 -2.2269,-0.42358 -4.13077,-0.23014 -8.52796,1.71051 -11.75809,4.1576 -0.87014,0.65921 -1.62388,1.45941 -2.43582,2.18911 -0.63732,0.88375 -1.34939,1.71814 -1.91197,2.65125 -2.04436,3.39083 -3.05114,7.36381 -3.47424,11.26642 -0.0774,0.71357 -0.0959,1.4323 -0.14382,2.14845 -0.13767,2.31577 0.4756,4.50615 1.14194,6.6878 0.6536,2.45508 0.60339,5.01521 0.85565,7.52608 0.062,0.34081 0.0849,0.69106 0.1859,1.02241 0.0928,0.30471 0.22007,0.60323 0.39131,0.87183 0.81197,1.27358 1.55208,2.61212 2.55171,3.74439 0.26606,0.30136 0.73438,0.3469 1.12882,0.42452 1.24047,0.24411 2.57913,0.0953 3.81814,0.0384 0.78523,-0.14157 1.58441,-0.22035 2.35568,-0.42471 1.9144,-0.50726 3.19113,-1.13667 4.93625,-2.05909 1.6219,-0.8573 3.19461,-1.79965 4.63372,-2.93699 -0.71469,-1.14364 -1.08421,-2.59701 -2.14407,-3.43091 -0.38692,-0.30443 -0.8721,0.46121 -1.28006,0.73679 -1.81339,1.22499 -3.56271,2.76571 -4.79481,4.58881 -0.45384,0.67154 -0.7812,1.42039 -1.1718,2.13059 -0.23896,0.75905 -0.54656,1.49982 -0.71686,2.27716 -0.37007,1.68913 -0.46906,3.75103 0.50518,5.28159 2.59773,4.08112 1.37387,3.36504 4.075,4.30532 1.46405,0.20331 2.90616,-0.004 4.33025,-0.34266 0.20443,-0.0487 1.47088,-0.38487 1.76484,-0.55371 0.11957,-0.0687 0.18419,-0.20525 0.27628,-0.30788 -0.79266,-1.20886 -1.40259,-2.55969 -2.37799,-3.62659 -0.24418,-0.26709 -0.71665,-0.10126 -1.07517,-0.15053 -0.42537,-0.0585 -0.85083,-0.11628 -1.27648,-0.17266 -0.22454,-0.0297 -2.11565,-0.23671 -2.38356,-0.40714 -0.31044,-0.19748 -0.44038,-0.58955 -0.66056,-0.88432 0.42145,0.37393 0.94103,1.5832 1.26435,1.12179 0.51315,-0.7323 -0.17436,-1.7827 -0.17465,-2.67689 -2.6e-4,-1.0167 0.0746,-2.03325 0.17282,-3.04519 0.27184,-2.80018 0.85842,-5.27163 1.59079,-7.96642 0.24288,-0.71381 0.72071,-2.27622 1.14402,-3.00263 0.21844,-0.37485 0.73109,-1.03381 1.06172,-0.75289 0.15494,0.13164 0.2896,0.73001 0.13846,0.59402 -0.6435,-0.579 -1.11971,-1.32044 -1.67957,-1.98065 -0.0754,0.67817 -0.0927,1.36537 -0.22631,2.03452 -0.53006,2.65398 -1.28422,4.8353 -2.25741,7.38206 -1.30961,3.42711 -2.8981,6.69688 -4.58177,9.94997 -0.42994,0.63197 -1.01146,2.04888 -2.07036,2.15303 -0.73194,0.072 -1.49022,-1.53785 -1.28797,-1.17841 1.92097,3.41409 0.75219,0.93641 0.26737,-0.21211 -0.85572,-2.14668 -1.45825,-4.37924 -2.10391,-6.59405 -0.19136,-0.65638 -0.3235,-1.33362 -0.57983,-1.96746 -0.81914,-2.02549 -2.86162,-4.2781 -3.97746,-5.75188 -1.65259,-0.63427 -2.4006,-1.18589 -4.27828,-0.77602 -2.70112,0.58962 -5.15946,2.89012 -6.70133,5.06508 -0.50094,0.70662 -0.86983,1.49813 -1.30474,2.24719 -0.47941,1.30216 -1.52163,3.68833 -0.33937,5.0056 0.98459,1.09703 1.8097,2.73993 3.26336,2.98437 1.03361,0.17381 1.70978,-1.24291 2.39946,-2.03215 1.22052,-1.39671 2.19658,-2.98947 3.29487,-4.4842 5.0018,-8.68765 4.34841,-7.29487 9.35854,-17.28422 1.92541,-3.83895 3.8448,-7.68218 5.65826,-11.57525 4.79515,-10.29406 9.03835,-20.82841 13.24682,-31.37068 0.8409,-2.09075 1.87095,-4.11504 2.52271,-6.27226 0.88112,-2.91636 0.99812,-6.11132 -3.12787,-7.2972 -1.57563,-0.45286 -3.21271,0.71762 -4.73872,1.31676 -2.23077,0.87584 -11.31987,5.54239 -13.27871,6.53371 -3.27462,1.6843 -8.26134,4.22855 -11.60253,6.0198 -1.34792,0.72263 -2.7348,1.3833 -4.01724,2.21661 -0.62563,0.40653 -3.08075,1.84422 -2.30169,3.34543 0.81669,1.57372 2.15073,2.81935 3.22609,4.22903 0.84921,0.37605 1.69066,0.77016 2.54764,1.12816 2.72081,1.13661 5.56013,2.05698 8.01897,3.73859 0.65281,0.44645 1.1513,1.10328 1.8282,1.51229 0.31319,0.18923 -0.47361,-0.55793 -0.71041,-0.83689 0.004,0.79556 0.15958,1.605 0.0116,2.38668 -0.48481,2.56086 -1.979,5.10954 -3.41906,7.18496 -2.55808,3.68674 -5.42432,6.77289 -8.64565,9.90343 -1.70822,1.66008 -3.53324,3.19558 -5.29985,4.79337 -4.26063,3.48086 -4.86614,4.08889 -9.07894,7.1397 -1.07344,0.77736 -2.14999,1.55338 -3.27079,2.26074 -0.72774,0.45929 -1.4454,0.97975 -2.26738,1.2345 -0.33492,0.1038 -1.3787,-0.25131 -1.03022,-0.21247 0.81695,0.091 1.62548,0.24626 2.43822,0.36939 0.77528,-1.7456 1.44645,-3.54126 2.32584,-5.2368 3.81671,-7.35897 8.71329,-14.01784 14.2475,-20.17028 1.6304,-1.81253 3.31592,-3.58 5.09187,-5.25017 1.40319,-1.31962 2.9552,-2.47146 4.4328,-3.70719 1.1708,-0.68855 4.02369,-3.08151 6.00076,-2.23286 0.62615,0.26878 1.14763,1.02105 1.13182,1.70227 -0.0122,0.52812 -1.04868,0.53293 -1.19549,1.04039 -0.52223,1.80513 -0.34175,3.75083 -0.72299,5.5909 -0.46929,2.26503 -1.21511,4.46384 -1.82267,6.69576 -2.55386,6.13004 -2.93979,7.80558 -6.53438,13.4328 -2.4648,3.85857 -5.12171,7.03903 -8.30341,10.29145 -2.76026,2.82161 -3.82863,3.54014 -6.73831,5.84829 0.25805,1.9261 -3.67275,0.9096 -3.44422,-0.21783 0.11407,-0.56277 1.31097,-0.27718 1.51907,-0.81236 0.83525,-2.14814 0.73934,-4.56578 1.42741,-6.76548 2.31362,-7.39648 3.77972,-8.84933 7.85565,-15.55251 4.81673,-6.57848 10.72514,-12.14754 17.21093,-17.04089 1.4376,-1.08463 2.93116,-2.09486 4.43904,-3.07946 0.73398,-0.47927 2.48133,-0.45516 2.2811,-1.30858 -0.3166,-1.34947 -2.13911,-1.76334 -3.20866,-2.64501 -5.27957,2.56867 -8.64729,4.28005 -14.43754,6.65899 -3.73059,1.53272 -7.54926,2.8425 -11.30159,4.32119 -3.70218,1.45894 -7.39142,2.9516 -11.06077,4.49124 -8.94412,3.75292 -8.81833,3.80337 -16.81815,7.64673 -2.2082,1.30141 -5.53887,2.81103 -7.22549,5.07718 -1.5617,2.09832 0.87011,4.53508 2.42938,5.69468 0.60914,0.45301 6.64335,0.26144 6.71599,0.26085 4.83157,-0.18485 9.68634,-0.36074 14.5193,-0.0789 2.36591,0.138 5.14087,0.42684 7.46197,1.04898 0.89743,0.24054 1.74799,0.63045 2.62199,0.94568 0.66571,0.4117 1.37519,0.75985 1.99714,1.23509 1.01839,0.77815 2.02652,2.01284 2.81236,3.01283 1.71309,2.17996 3.15735,4.5553 4.65636,6.88267 1.63219,2.60927 3.37883,5.14724 4.98201,7.77491 0.31178,0.51101 1.32575,1.97481 0.89991,1.5541 -3.09478,-3.05751 -0.54284,-2.78061 -3.71355,-2.53254 -3.50743,0.25011 -7.0222,0.3655 -10.53525,0.50124 -0.17946,0.007 -4.43425,0.1195 -5.14141,0.31367 -0.28455,0.0781 -0.4602,0.36949 -0.6903,0.55424 0.97065,1.38476 1.63837,3.04176 2.91196,4.15428 0.75651,0.66084 7.10028,1.79686 7.27673,1.82231 3.79503,0.54738 7.31116,0.74743 11.14317,0.27724 2.01427,-0.24714 3.97741,-0.8085 5.96611,-1.21275 4.72519,-1.39642 9.50529,-3.14584 13.33939,-6.36236 0.51998,-0.43623 3.12313,-2.80353 2.58723,-4.19188 -0.61647,-1.59708 -1.95961,-2.80762 -2.93942,-4.21144 -1.03723,-0.13107 -2.06638,-0.37395 -3.11168,-0.39322 -2.66058,-0.0491 -5.86497,0.45829 -8.40963,1.12545 -2.76785,0.72568 -5.59161,1.78131 -8.02616,3.3177 -1.06397,0.67144 -1.97795,1.55536 -2.96693,2.33304 -0.67267,0.85323 -1.44959,1.63374 -2.01802,2.55968 -0.81303,1.32437 -1.49956,3.11593 -1.18859,4.72893 0.14275,0.74048 0.52473,1.42871 0.94178,2.057 3.00703,4.53006 2.08656,3.62083 5.50673,5.57018 0.84393,0.29968 1.66855,0.66065 2.53181,0.89904 2.50004,0.69037 5.2445,0.99845 7.71081,-0.0262 1.58315,-0.65772 2.3872,-1.54099 3.62133,-2.63683 1.66484,-1.92337 2.41823,-2.35337 -1.09495,-4.9045 -0.34553,-0.25091 -0.6851,0.51103 -1.00935,0.7889 -0.98573,0.84479 -1.92108,1.74668 -2.88665,2.61445 -1.83672,1.51323 -4.9517,4.14541 -7.48211,4.09545 -0.67021,-0.0132 -1.40473,-0.1054 -1.94855,-0.49734 -0.73681,-0.53103 -1.13205,-1.42056 -1.69807,-2.13084 -0.24962,-2.56312 -0.9767,-9.99976 -0.98709,-10.42795 -0.0724,-2.9799 0.0902,-5.96565 0.34153,-8.93581 0.45062,-5.32651 1.40849,-10.82543 2.79952,-15.99574 0.54407,-2.0223 1.29536,-3.98308 1.94304,-5.97461 0.70156,-1.44811 1.23579,-2.98998 2.10468,-4.34431 0.59211,-0.92291 1.27255,-1.8861 2.23252,-2.41603 1.90256,-1.05026 3.42016,0.71349 4.30687,2.02193 0.50539,0.74576 0.72461,1.6515 1.02329,2.50143 0.74616,2.12332 1.40642,4.27587 2.10964,6.4138 0.98893,3.97319 2.16703,7.81111 2.38678,11.93107 0.17925,3.36043 -0.11292,6.6804 -2.22742,9.50404 -3.49276,4.66414 -7.51012,5.75971 -12.66714,8.35188 -7.52767,2.35752 -10.60983,3.71155 -18.36488,4.67529 -4.7349,0.58842 -7.79966,0.94181 -11.87364,-1.46059 -0.46313,-0.2731 -0.65097,-0.91292 -0.71255,-1.44704 -0.19039,-1.65126 -0.0195,-3.32435 -0.0292,-4.98652 1.34545,-5.00604 1.42104,-6.59509 4.09897,-11.16697 2.12676,-3.6309 4.83545,-6.72962 7.89596,-9.58773 3.0312,-2.83073 4.32494,-3.50385 7.61819,-5.66962 0.93684,-0.48001 1.84446,-1.02192 2.81051,-1.44004 0.58907,-0.25495 1.2071,-0.45749 1.83864,-0.57219 0.13963,-0.0254 0.50769,0.24867 0.39155,0.16712 -1.29314,-0.90791 -2.40431,-2.23816 -3.92944,-2.65108 -1.20411,-0.326 -2.44982,0.53314 -3.69614,0.58652 -1.75,0.075 -3.5006,-0.13554 -5.2509,-0.20331 -2.1158,-0.50246 -4.27653,-0.84361 -6.3474,-1.50736 -4.16975,-1.33647 -8.72685,-3.58152 -12.55808,-5.69298 -2.69581,-1.48573 -5.6999,-3.27511 -8.05378,-5.34702 -0.53065,-0.46708 -0.92496,-1.06934 -1.38744,-1.60402 0.62174,0.97569 1.15535,2.01349 1.86522,2.92706 0.2137,0.27502 0.58118,0.38423 0.86481,0.58635 0.54403,0.3877 1.10511,0.75463 1.61784,1.18288 2.15372,1.79887 3.89364,3.9611 5.65284,6.12824 1.80079,2.30079 3.34324,4.80818 5.22523,7.04724 0.78518,0.93416 2.0976,2.35628 3.2158,2.97063 0.56238,0.30898 1.2125,0.42051 1.81875,0.63077 0.82636,-0.28728 1.76595,-0.35502 2.47907,-0.86184 3.27242,-2.32576 4.86983,-5.92669 6.77276,-9.31792 2.00592,-3.57478 5.25723,-9.82103 7.00569,-13.6078 0.85689,-1.85583 1.59571,-3.76393 2.39357,-5.64589 0.3953,-1.41939 1.00591,-2.7958 1.18591,-4.25817 0.31954,-2.59592 -1.55282,-4.99842 -3.56731,-6.37077 -0.65572,-0.44671 -1.5991,-0.11942 -2.3802,0.0199 -2.1831,0.3895 -2.77213,1.09773 -4.53416,2.33793 -0.56727,0.73983 -1.21995,1.4214 -1.70181,2.21949 -0.97627,1.61694 -1.52509,3.34425 -1.87951,5.18386 -0.14427,0.74879 -0.4753,3.14943 -0.0812,4.03488 0.6399,1.43753 1.60938,2.70439 2.41406,4.05659 0.53254,0.062 1.09733,0.37891 1.59762,0.18615 1.99387,-0.7682 5.2098,-4.11011 6.397,-5.321 1.99854,-2.03844 5.38858,-5.84784 7.22904,-8.07305 0.92927,-1.12354 1.79767,-2.29606 2.69651,-3.44409 0.53659,-0.88286 1.22104,-1.69137 1.60976,-2.64858 0.98646,-2.42912 -0.8959,-4.35362 -2.70438,-5.99085 -0.61995,-0.56125 -1.59014,-0.52585 -2.40466,-0.71538 -1.61098,-0.37486 -3.89287,-0.64262 -5.53464,-0.86311 -1.25893,0.27427 -2.51567,-0.59088 -3.7761,-0.45455 -0.19797,0.0214 -0.54613,0.20321 -0.45903,0.38227 3.3376,6.86127 1.77279,2.21291 4.8222,7.01902 0.55268,0.87106 0.91448,1.84947 1.37172,2.77421 0.71032,2.1558 1.57201,4.26748 2.13097,6.46739 1.50161,5.90996 2.20103,12.52576 -0.35529,18.28727 -1.93301,4.35669 -3.49996,5.03817 -6.96659,7.99805 -1.4876,0.73642 -2.90063,1.6481 -4.4628,2.20925 -2.65515,0.95378 -5.68921,1.49612 -8.43901,0.42884 -1.15093,-0.44671 -2.13006,-1.29135 -3.01221,-2.15507 -0.37529,-0.36746 -0.52404,-0.92481 -0.65331,-1.43388 -0.38754,-1.52617 -0.59259,-3.09295 -0.88889,-4.63942 0.0389,-1.63373 -0.0789,-3.27875 0.11667,-4.9012 0.65675,-5.44808 3.04331,-10.81321 8.12525,-13.44998 0.85402,-0.4431 1.82911,-0.59757 2.74366,-0.89636 0.76176,0.19984 1.74196,0.0294 2.28528,0.59953 0.32757,0.3437 -0.34605,0.89277 -0.4154,1.36247 -0.36849,2.49596 -0.35212,5.05206 -0.89539,7.51589 -0.63627,2.88569 -1.62763,5.68602 -2.6286,8.46632 -2.01023,5.58362 -3.81053,9.02021 -6.32644,14.25204 -0.78566,1.34444 -1.57133,2.68887 -2.35699,4.0333 -0.43673,0.12611 -1.67383,0.65105 -1.31017,0.37832 5.18499,-3.88846 0.0878,4.36533 3.9998,-7.99711 2.24539,-7.09573 3.42256,-8.68805 6.82548,-15.28698 3.17173,-5.47832 6.90821,-10.59016 11.07372,-15.34853 0.81506,-0.93107 1.68034,-1.81695 2.52248,-2.7236 0.55436,-0.59682 1.15875,-1.15025 1.66701,-1.78679 0.24125,-0.30213 0.3783,-0.6744 0.56745,-1.0116 -0.88593,-1.19014 -1.40475,-2.77594 -2.6578,-3.5704 -0.69314,-0.43947 -1.62656,0.22073 -2.4387,0.33908 -1.29753,0.18908 -2.59074,0.40803 -3.89022,0.5832 -4.3209,0.58246 -8.64746,0.96773 -12.99463,1.27729 -2.21983,1.94065 -3.27505,-1.41533 -4.99152,-1.30667 -0.49514,0.0313 0.5718,1.36635 0.99479,1.10708 0.7129,-0.43696 0.45143,-1.65811 0.97189,-2.31253 2.56501,-3.22523 5.2037,-4.24671 8.77105,-6.34295 5.38138,-2.04421 6.66126,-2.85341 12.2698,-3.76583 1.65843,-0.26979 3.34627,-0.49013 5.02436,-0.40537 1.13888,0.0575 2.19017,0.66933 3.31958,0.82684 0.23193,0.0324 -0.44423,-0.65043 -0.54749,-0.44024 -0.59656,1.21436 -0.76581,2.59534 -1.14871,3.89301 -1.31769,2.12847 -2.52267,4.331 -3.95307,6.38543 -7.17769,10.30899 -16.15039,19.10793 -24.72469,28.2164 -1.07194,1.29712 -1.608,1.73704 -2.27754,3.07947 -0.0827,0.16585 -0.24271,0.36415 -0.16311,0.53151 0.55996,1.17716 1.15636,2.36977 2.01129,3.35382 0.19769,0.22754 0.24853,-0.621 0.12435,-0.89565 -0.67407,-1.49082 -1.6346,-2.83474 -2.4519,-4.2521 0.14516,0.21315 0.52233,0.88226 0.43547,0.63945 -1.63893,-4.58128 -1.49941,-2.44761 -2.59236,-7.5465 -0.55103,-2.57072 -0.82321,-5.42112 -0.75467,-8.05644 0.0284,-1.09327 0.2075,-2.1774 0.31126,-3.2661 0.23715,-0.88838 0.38614,-1.80511 0.71145,-2.66512 0.78375,-2.07193 2.26952,-4.04767 4.35886,-4.94286 1.98885,-0.85214 2.66401,-0.54104 4.79208,-0.39774 0.92425,0.32897 1.89146,0.55585 2.77274,0.9869 1.00248,0.49033 1.94363,1.10639 2.84688,1.76177 3.5998,2.61193 6.39201,6.1207 9.06194,9.62709 1.28511,-0.24734 0.81424,2.33893 1.84018,2.53919 0.27493,0.0537 0.50816,-0.40783 0.4841,-0.68692 -0.0873,-1.01274 -0.50802,-1.96894 -0.797,-2.9435 -0.69845,-2.35546 -1.97221,-6.17003 -2.72748,-8.46787 -0.32312,-0.95939 -2.04591,-6.12573 -2.50567,-7.31169 -0.30112,-0.77675 -0.51052,-1.61984 -1.01167,-2.28532 -0.92062,-1.22251 -1.69404,-2.99189 -3.19336,-3.29864 -1.07873,-0.22069 -1.77354,1.32468 -2.52602,2.1285 -1.07996,1.15364 -1.96306,2.47693 -2.94458,3.71539 -1.02284,1.36331 -2.05092,2.72271 -3.06853,4.08994 -0.76687,1.03036 -4.18343,5.59164 -4.97679,6.95536 -0.30905,0.53123 -0.92139,1.16375 -0.6619,1.72087 2.4308,5.21881 3.0258,3.17375 6.02478,0.90771 1.63288,-1.57225 3.28865,-3.12107 4.89865,-4.71675 2.06435,-2.04598 4.07816,-4.14233 6.12348,-6.20733 4.92068,-4.96804 7.32584,-7.40402 12.26285,-12.18801 1.62018,-1.56997 3.23893,-3.14205 4.89545,-4.67363 1.23483,-1.1417 2.51808,-2.22989 3.77711,-3.34483 0.58718,-0.42973 2.93453,-2.62808 4.34172,-2.457169 0.26525,0.03222 0.60199,0.850619 0.37611,0.707879 -0.77846,-0.491926 -1.18277,-1.891183 -2.09875,-1.796447 -0.7921,0.08192 -0.66312,1.453492 -1.08931,2.126167 -0.53336,0.84184 -1.1865,1.60151 -1.77975,2.40226 -0.80753,0.76047 -1.55301,1.59276 -2.4226,2.28141 -1.40098,1.10949 -3.51947,2.42752 -5.33687,2.80487 -0.73004,0.15157 -1.53629,0.24645 -2.23681,-0.009 -0.67035,-0.24437 -1.11788,-0.89193 -1.62134,-1.39751 -0.0803,-0.0806 0.21805,0.0652 0.32707,0.0978 -0.23275,-1.11067 -0.61377,-2.20036 -0.69824,-3.332 -0.40895,-5.47898 1.43747,-11.268699 5.72203,-14.878086 0.96819,-0.815623 2.14091,-1.351688 3.21137,-2.027531 1.12054,-0.346925 2.20999,-0.817761 3.36161,-1.040776 2.59868,-0.503243 5.7747,-0.238964 8.10704,1.121905 1.49991,0.875162 1.75782,1.544225 2.69547,2.893369 -0.40745,-0.238125 -0.89641,-1.055669 -1.22234,-0.714372 -0.55804,0.584332 -0.14027,1.622621 -0.38148,2.39377 -0.29473,0.942234 -0.70922,1.852859 -1.2125,2.702195 -1.09708,1.851411 -2.82337,3.791416 -4.50871,5.119447 -0.90972,0.716854 -1.94901,1.251899 -2.92352,1.877839 -1.01359,0.36956 -1.99125,0.85873 -3.04076,1.10867 -1.79093,0.42651 -3.52588,0.4443 -5.26395,-0.19106 -1.22593,-0.44815 -2.41566,-1.39866 -3.22154,-2.416706 -0.33021,-0.417148 -0.53743,-0.91835 -0.80614,-1.377527 0.46238,0.578784 0.67363,1.537176 1.38716,1.736352 0.41898,0.116956 0.21815,-0.861211 0.46512,-1.2193 0.34683,-0.502889 0.79395,-0.941623 1.28026,-1.311357 1.53716,-1.168705 3.12382,-1.777503 5.0327,-2.145515 1.14881,-0.221477 2.32878,-0.228028 3.49318,-0.342042 5.60825,0.111286 11.11946,1.381683 16.42956,3.122385 1.40793,0.497363 2.34556,1.600731 3.42938,2.55843 1.11451,0.98481 1.37247,1.14769 2.56264,2.05669 1.28552,0.9598 3.51054,2.46338 4.77581,0.53005 0.81286,-1.24205 0.7311,-2.51176 0.85928,-3.921774 -0.0861,-2.050727 -0.62437,-3.983689 -1.67149,-5.751441 -1.0328,-1.743596 -1.9532,-3.738793 -3.54855,-5.087226 -0.26751,-0.2261 -0.58334,-0.387868 -0.87501,-0.581805 -0.30178,0.06087 -0.64742,0.01452 -0.90535,0.182596 -0.67948,0.442746 -1.31307,1.81537 -1.65459,2.408251 -0.36544,0.634392 -0.71128,1.281113 -1.10841,1.896163 -1.26201,1.954525 -1.33864,1.899166 -2.8863,3.59805 -2.21359,2.035847 -4.84946,3.4529 -7.79945,4.091567 -2.0994,0.454519 -4.32021,0.581409 -6.4493,0.771239 -2.33351,0.18985 -3.96297,0.31368 -6.26808,0.53341 -1.67999,0.16014 -4.19618,0.21265 -5.66322,1.2244 -0.33187,0.22888 -0.55334,0.58644 -0.83002,0.87966 -0.47155,0.20495 -0.65258,2.00029 -0.91247,2.37232 -0.18595,0.2662 -0.6493,-0.13661 -0.92308,-0.31119 -0.4545,-0.28979 -0.9006,-0.59255 -1.35089,-0.88883 -3.49083,-2.74738 -7.15702,-5.382903 -11.23078,-7.209229 -2.60245,-1.16672 -3.40317,-1.258864 -6.05529,-1.935239 -1.12326,-0.17114 -4.35244,-0.83461 -5.22257,0.541404 -0.25701,0.406439 -0.32726,0.956579 -0.22113,1.425604 0.44547,1.968502 4.46735,6.42832 4.74456,6.78151 5.32911,4.18434 11.52162,7.01834 18.00242,8.90825 3.62304,1.05654 6.59765,1.58477 10.2623,2.32659 -2.68244,-5.08187 6.52327,3.37017 5.89243,1.44845 -0.35375,-1.07762 -1.38007,-2.08392 -2.48954,-2.31944 -0.85636,-0.18179 -1.50427,0.89742 -2.27776,1.30743 -8.44391,4.476 2.30979,-1.49769 -6.30572,3.34396 -2.08508,1.75958 -3.62537,2.60882 -4.68617,5.26016 -1.56971,3.92328 -0.34196,8.4458 1.24791,12.12377 0.57443,1.32888 1.36503,2.55348 2.04754,3.83022 1.26874,1.74574 2.39169,3.60737 3.80621,5.23723 1.4147,1.63008 4.15033,3.56189 6.13016,4.47975 1.61353,0.74805 4.09761,1.51291 5.94038,0.96943 0.96565,-0.2848 1.71628,-1.05298 2.57442,-1.57946 0.68474,-1.07299 1.49027,-2.07785 2.05423,-3.21895 1.59752,-3.23236 2.62721,-7.48779 1.96248,-11.09618 -0.58327,-3.16615 -2.35665,-5.16088 -4.08013,-7.91792 -0.74152,-0.6524 -1.42047,-1.3837 -2.22457,-1.95722 -1.39169,-0.99261 -3.22596,-1.85294 -4.94485,-2.07716 -0.85268,-0.11123 -1.76254,-0.21643 -2.57915,0.053 -2.30365,0.75997 -4.17964,3.03381 -5.79221,4.61493 -1.36172,1.44249 -4.22622,4.62595 -5.89687,5.82933 -1.94697,1.40241 -3.6327,2.26447 -6.04018,1.3201 -2.58131,-1.01256 -4.05754,-3.44509 -5.69269,-5.45519 -0.78318,-1.26717 -1.61932,-2.50311 -2.34954,-3.80152 -0.27434,-0.48781 -0.44154,-1.02857 -0.65729,-1.54497 -0.39537,-0.94636 -0.79083,-1.89272 -1.17604,-2.84326 -0.65033,-1.60474 -1.45141,-4.68943 -3.87453,-4.67228 -1.13723,0.008 -1.38116,1.80715 -2.07174,2.71073 -2.69146,4.59095 -5.37085,9.1964 -7.89423,13.88286 -0.63948,1.18766 -1.31277,2.36152 -1.85245,3.59773 -0.32223,0.7381 -1.00165,1.54878 -0.72444,2.30495 0.50896,1.38837 1.88247,2.28097 2.8237,3.42145 10.98353,-8.5681 -3.37631,2.72816 11.67992,-9.5698 2.92727,-2.39101 5.91819,-4.703 8.87729,-7.05449 3.02889,-2.45389 6.07156,-4.89086 9.08666,-7.36167 25.35861,-20.780778 -6.93771,5.49101 15.04225,-12.36171 0.39666,-0.31137 6.99801,-5.44211 8.25563,-6.573734 0.40396,-0.363484 1.29073,-0.729236 1.07317,-1.227201 -0.60776,-1.39107 -1.68824,-2.743586 -3.07641,-3.357938 -0.91959,-0.406977 -1.97052,0.413221 -2.93514,0.69745 -1.24988,0.368278 -2.46738,0.83862 -3.70108,1.257929 -1.30739,0.720926 -2.70169,1.302883 -3.92217,2.162776 -2.53256,1.784308 -5.3377,4.586948 -6.72099,7.395738 -1.76319,3.58018 -2.47136,8.28804 -2.62829,12.20199 -0.0825,2.0573 0.16198,4.11472 0.24298,6.17207 0.36342,1.81238 0.58629,3.6587 1.09028,5.43712 0.43421,1.5322 0.98844,3.04195 1.71432,4.45944 1.47075,2.87204 3.1258,5.84424 5.88523,7.69187 2.0758,1.38988 3.31447,1.33794 5.65625,1.70951 2.12213,-0.065 4.94151,0.12079 6.40925,-1.85939 1.58492,-2.13826 1.43707,-4.76553 1.45653,-7.27841 0.0134,-1.73545 -0.14965,-3.46776 -0.22447,-5.20165 -0.57021,-5.57492 -1.2311,-11.23513 -2.76822,-16.64469 -0.6945,-0.55897 -1.44715,-2.30129 -2.0835,-1.67692 -0.74618,0.73213 0.4442,2.04301 0.67015,3.06367 0.8872,4.00758 1.84562,8.0105 2.55243,12.05549 0.21736,1.24393 0.37772,2.49715 0.56658,3.74572 0.005,1.25488 0.10799,2.51331 0.0135,3.76464 -0.22984,3.04355 -1.09327,6.34356 -3.06212,8.76033 -0.5238,0.64297 -1.08522,1.3246 -1.83392,1.68131 -0.88657,0.42239 -1.92704,0.37973 -2.89056,0.5696 -1.20933,-0.68326 -2.53667,-1.1905 -3.62797,-2.04978 -2.9405,-2.31531 -4.97054,-5.12911 -6.60257,-8.4774 -0.49022,-1.00574 -0.73304,-2.12002 -0.96831,-3.21385 -0.29467,-1.36995 -0.58723,-2.7573 -0.61737,-4.15825 -0.0242,-1.12315 0.30405,-2.22615 0.45608,-3.33922 0.43913,-0.68563 0.67198,-1.56055 1.31741,-2.0569 1.2542,-0.9645 2.97382,-0.22396 3.95343,0.6327 0.79053,0.69131 1.39961,1.57988 1.95134,2.47344 0.21379,0.34626 0.20388,0.78793 0.30566,1.18194 0.30326,1.1739 0.60631,2.34786 0.90946,3.52179 0.0338,1.05198 0.19705,2.10776 0.10146,3.15593 -0.16721,1.83362 -0.75125,3.30379 -1.96555,4.68594 -1.82862,2.08136 -4.83131,3.46375 -7.22702,4.74569 -2.99203,1.68645 -6.64704,2.90494 -8.56526,5.97749 -1.10744,1.77387 -0.89561,2.20546 -1.04028,4.21056 1.01879,2.76493 1.55731,5.23756 5.16936,6.52146 4.5395,1.61357 9.89672,-4.94925 11.67547,-6.977 5.95029,-6.78326 6.68698,-9.32644 10.62603,-17.03549 0.49957,-1.97546 1.36179,-3.89334 1.49872,-5.92639 0.1518,-2.25375 -2.73896,-5.6155 -4.96043,-5.41978 -1.41336,0.12452 -2.03085,2.03068 -2.73159,3.2644 -2.024,3.56345 -1.97592,5.7379 -2.54845,9.65779 0.17906,1.42896 0.1941,2.88821 0.5372,4.28688 0.87412,3.56334 3.67436,6.86107 3.72477,10.60133 0.0445,3.30557 -1.02564,3.74667 -2.97904,6.2449 -1.18458,0.64606 -2.29875,1.44259 -3.55375,1.9382 -2.2396,0.88442 -4.98998,1.21235 -7.38072,1.30818 -0.96036,0.0385 -1.92718,0.0366 -2.88258,-0.0682 -0.34697,-0.038 -1.15232,-0.66215 -0.98482,-0.35591 0.78777,1.44031 1.96533,2.63016 2.948,3.94524 0.84318,0.76646 1.84971,1.38491 2.52954,2.29937 1.5563,2.0934 3.80271,8.51013 4.33192,10.18647 0.96624,3.0607 2.00276,7.45169 2.14705,10.78411 0.0384,0.88806 -0.19434,1.76712 -0.29152,2.65069 -0.28777,-0.12573 -0.70578,-0.10551 -0.86332,-0.37718 -0.0954,-0.16449 0.45337,-0.19637 0.42195,-0.38392 -0.34875,-2.08147 -1.15562,-4.06778 -1.51622,-6.14724 -0.63657,-3.67091 -1.11252,-8.36994 -0.14809,-12.10418 0.35386,-1.37012 1.24667,-2.54078 1.87,-3.81116 0.82764,-0.80642 1.55568,-1.72965 2.4829,-2.41924 1.47511,-1.09706 3.24351,-1.67428 5.02571,-1.98483 0.66881,-0.11654 1.35245,-0.17896 2.03086,-0.15355 0.44413,0.0166 1.57496,0.63074 1.30392,0.2785 -0.55956,-0.72719 -1.51888,-1.02987 -2.27833,-1.54481 -2.76472,6.76162 -5.52279,13.55308 -7.17839,20.69129 -0.37764,1.62822 -0.74051,3.26812 -0.9112,4.93082 -0.13587,1.32356 -0.003,2.66103 -0.005,3.99155 1.00859,3.34725 1.03773,4.56341 4.03298,7.47519 1.39235,1.35354 4.09022,1.08271 5.6394,0.53692 3.22631,-1.13666 5.54127,-3.36692 8.17758,-5.43614 3.91922,-3.6598 4.77471,-4.37889 8.46999,-8.13275 1.11547,-1.13316 2.23809,-2.26156 3.29237,-3.45187 0.9106,-1.02809 2.8893,-3.20916 3.18304,-4.86458 0.0851,-0.47948 -0.21882,-0.94905 -0.32823,-1.42357 -1.15586,-1.1558 -1.91218,-2.96478 -3.46757,-3.46741 -1.19341,-0.38565 -2.41854,0.69236 -3.56811,1.1938 -1.5634,0.68195 -3.0581,1.5148 -4.54743,2.34618 -2.76086,1.54119 -6.06998,3.57941 -8.5475,5.59238 -1.05628,0.85821 -1.9835,1.86407 -2.97525,2.79611 -0.63732,0.9054 -1.45674,1.70689 -1.91197,2.7162 -2.03899,4.52075 1.17572,9.43854 3.83212,12.81823 0.50225,0.63901 1.22872,1.06426 1.84308,1.59639 1.77508,1.19979 3.75895,1.81036 5.84991,2.15949 0.52467,0.0876 1.05568,0.13195 1.58419,0.19227 0.41983,0.0479 0.85385,0.0183 1.26071,0.13241 0.34457,0.0966 0.63715,0.32607 0.95572,0.4891 0.25498,0.34008 0.69228,0.60145 0.76494,1.02025 0.0549,0.31666 -0.74388,-0.97913 -0.70251,-0.66041 0.13945,1.07414 0.70055,2.0503 1.01741,3.08607 0.28863,0.94346 1.40859,4.97797 1.66574,6.06072 0.17986,0.75733 0.30885,1.52585 0.46328,2.28877 0.0497,0.65514 0.47769,2.1673 -0.43441,2.70313 -1.3744,0.80744 -4.2446,-0.24816 -5.13722,-0.60673 -4.14263,-1.66408 -5.4831,-3.02985 -9.11079,-5.70496 -3.22095,-3.01205 -4.5025,-3.92627 -7.08586,-7.36863 -0.78108,-1.0408 -1.52093,-2.12501 -2.10405,-3.28833 -0.0829,-0.1654 0.21188,-0.33527 0.1953,-0.51954 -0.49587,-5.51277 -0.50542,0.69273 -0.40098,-3.98592 0.17309,-0.49242 0.25894,-1.02486 0.51927,-1.47726 0.7816,-1.35826 2.21158,-1.93752 3.72768,-1.68833 1.29176,0.21233 1.5551,0.59336 2.56737,1.34225 0.30823,0.40977 1.11702,1.7046 0.92467,1.2293 -0.22044,-0.54473 -0.42718,-1.3815 -1.0115,-1.44387 -0.4581,-0.0489 0.24765,0.90075 0.23849,1.36136 -0.0134,0.67429 -0.24969,1.45829 -1.15108,1.27339 -0.60168,-0.12342 -1.11421,-0.51726 -1.67131,-0.77589 -0.88682,-0.75294 -1.839,-1.43508 -2.66047,-2.25882 -4.10614,-4.11748 -7.56552,-9.22617 -10.74262,-14.07087 -3.16824,-4.83119 -2.41593,-3.12008 -3.62389,-6.62821 -0.46114,-2.11539 -0.9108,-3.77876 0.59279,-5.56477 0.88112,-1.04661 0.78622,-0.50251 1.77591,-1.21118 0.16747,-0.11991 0.27399,-0.30761 0.41098,-0.46141 -0.79106,-1.31191 -1.34594,-2.79922 -2.37319,-3.93573 -0.40401,-0.44698 -1.12685,-0.43513 -1.71098,-0.58282 -0.95303,-0.24096 -1.91001,-0.5227 -2.89132,-0.5808 -1.61068,-0.0954 -3.2302,-7.9e-4 -4.83894,0.1231 -5.00201,0.3852 -6.78419,0.87901 -11.70073,1.83502 -3.35912,0.98007 -5.71187,1.45253 -8.75449,3.05431 -1.18175,0.62213 -2.99847,1.72186 -3.33009,3.26865 -0.46571,2.17228 2.32006,5.56968 2.89386,6.56074 0.60308,0.54181 1.14419,1.16179 1.80925,1.62543 2.15403,1.50164 5.49761,2.68504 8.14729,2.03331 2.84347,-0.6994 3.52523,-2.00381 5.47967,-4.01952 1.34676,-2.44201 2.4503,-3.46709 2.05107,-6.40975 -0.15297,-1.12748 -0.61402,-2.22021 -1.19988,-3.19561 -1.09864,-1.82914 -2.36447,-3.57423 -3.80934,-5.14431 -1.14476,-1.24397 -5.967,-4.49767 -7.2594,-5.40082 -3.40926,-2.32585 -6.83427,-4.62948 -10.2292,-6.97633 -0.75988,-0.52529 -1.54544,-1.01689 -2.26874,-1.59151 -0.51918,-0.41245 -1.13868,-1.9481 -1.44945,-1.36237 -0.33679,0.63476 0.82316,1.17803 1.23474,1.76705 0.19811,-0.31427 0.28279,-0.74041 0.59432,-0.9428 1.55548,-1.01053 5.46742,-1.66469 6.76719,-1.86308 3.96619,-0.60537 8.39247,-0.87077 12.38854,-0.91429 2.07815,-0.0226 4.15569,0.0847 6.23354,0.12713 2.59268,0.27022 6.96757,0.37148 9.46148,1.81263 0.88201,0.50969 1.9567,1.25571 2.04554,2.27051 0.0598,0.68318 -1.37095,0.50802 -1.7524,1.07794 -0.96849,1.44699 -1.29685,3.2432 -2.15416,4.75871 -1.02669,1.81493 -2.31923,3.46606 -3.47884,5.19909 -2.67506,3.19452 -4.4999,5.66856 -7.64456,8.36154 -1.01493,0.86915 -1.9471,2.18074 -3.2772,2.30855 -0.87686,0.0843 -1.74131,-0.94736 -1.92698,-1.80846 -0.23702,-1.09924 0.66296,-2.15757 0.8321,-3.26929 0.46047,-3.02657 0.70227,-6.0824 1.0534,-9.12361 2.08454,-9.06026 4.90836,-18.04828 10.03151,-25.90223 1.92442,-2.95022 4.68942,-6.3879 7.94671,-8.11157 0.99704,-0.52761 2.18799,-0.55004 3.28199,-0.82506 2.47867,0.66687 2.55229,0.25883 4.16491,2.27004 0.1725,0.21512 -0.62769,-0.67114 -0.71811,-0.41064 -0.29592,0.85255 0.11968,1.82582 -0.0787,2.7062 -0.74544,3.30871 -2.14703,4.3098 -4.31613,7.0549 -6.5962,6.75426 -14.60225,11.79972 -22.22604,17.26969 -0.98752,1.13387 -2.29211,2.4682 3.26572,2.65867 1.1492,0.0394 1.87055,-1.36207 2.65373,-2.20399 1.50392,-1.61672 2.79693,-3.41761 4.17816,-5.14033 3.21176,-4.00582 6.38094,-8.04561 9.57602,-12.06475 1.88036,-2.36057 5.26713,-6.49601 7.07417,-9.15107 0.6421,-0.94344 1.35945,-1.8706 1.74855,-2.94343 0.82404,-2.27207 -2.00945,-4.62763 -3.44025,-5.40215 -0.80165,-0.43394 -1.8139,0.18319 -2.72085,0.27478 -1.12732,0.40867 -2.29099,0.72834 -3.38194,1.226 -5.32448,2.42886 -9.74296,6.15382 -13.26299,10.80492 -0.51737,0.68361 -0.9153,1.44988 -1.37295,2.17482 1.05053,0.981 1.74754,3.25059 3.15159,2.94299 2.14702,-0.47036 3.11029,-3.10644 4.66882,-4.65626 2.05285,-2.04139 4.09788,-4.09074 6.1653,-6.11736 2.10708,-2.06551 4.23429,-4.11039 6.35797,-6.15882 1.88895,-1.82202 3.81934,-3.60149 5.67989,-5.45249 1.45319,-1.44574 2.83954,-2.95713 4.25931,-4.4357 0.57892,-1.15627 1.51037,-2.19569 1.73675,-3.46882 0.49037,-2.75775 -3.41365,-5.845721 -4.9205,-6.631563 -1.22695,-0.639866 -2.74829,-0.381651 -4.13193,-0.400592 -3.31897,-0.04543 -6.38994,0.494786 -9.66357,0.936617 -3.64508,0.663474 -7.33791,1.209508 -10.88093,2.332384 -1.09114,0.34581 -2.18591,0.780314 -3.17501,1.367824 -0.23176,0.13767 -0.43377,0.32019 -0.65065,0.48028 -0.61403,1.61731 -0.41055,0.7808 2.29434,3.77264 0.14325,0.15844 0.42706,-0.0103 0.6406,-0.0154 0,0 -1.69135,-3.36274 -1.69135,-3.36274 v 0 c -0.19274,-0.0264 -0.63687,-0.26461 -0.57824,-0.0791 0.73897,2.33783 2.44216,4.08067 1.262,2.83257 0.15804,-0.21189 0.28573,-0.45024 0.47412,-0.63567 0.8077,-0.79506 1.78787,-1.37002 2.80862,-1.84913 3.30098,-1.54941 6.88933,-2.336936 10.44418,-3.042008 3.66644,-0.464481 6.02655,-0.957847 9.7401,-0.656508 1.41978,0.11521 2.77814,0.760746 4.20252,0.774769 0.53684,0.0053 1.03844,-1.074325 1.44107,-0.719209 2.23257,1.969086 0.41636,5.150366 -0.14803,7.085836 -1.29954,1.66791 -2.50982,3.40939 -3.89863,5.00373 -2.87181,3.29683 -8.70508,9.05032 -11.89485,11.83827 -2.13434,1.86547 -4.29074,3.72435 -6.6291,5.32669 -1.68734,1.15623 -3.95158,1.47092 -5.39948,2.91578 -0.59568,0.59443 -0.0346,1.68272 -0.0518,2.52408 0.34387,-0.86734 0.55152,-1.802 1.0316,-2.60203 0.69456,-1.15742 1.55352,-2.21649 2.46007,-3.2166 2.94395,-3.24781 6.63292,-5.85445 10.76464,-7.36203 1.12538,-0.41062 2.32226,-0.58947 3.48339,-0.88421 0.90516,0.0184 1.95104,0.54014 2.71548,0.0551 0.5334,-0.33845 -0.39944,-2.15644 0.17207,-1.88731 0.68541,0.32276 0.63204,1.46362 0.51903,2.21275 -0.18525,1.22804 -0.81147,2.35608 -1.37517,3.46271 -1.85853,3.64858 -4.17378,6.61971 -6.54182,9.96784 -3.43351,4.38885 -5.82328,7.73463 -9.81213,11.66168 -1.48959,1.4665 -3.08092,2.8397 -4.77099,4.06981 -0.89871,0.65411 -2.47451,0.5474 -2.95187,1.55123 -0.95918,2.01703 1.57204,4.83334 0.0756,3.05849 0.38594,-0.52946 0.7164,-1.10421 1.15783,-1.58839 1.81496,-1.99075 4.13019,-3.80582 6.19544,-5.4729 4.70875,-3.80093 9.55807,-7.42344 14.24948,-11.24625 2.5273,-2.48844 3.93965,-3.13145 4.94474,-6.41216 0.91812,-2.99684 -0.32365,-4.81061 -2.10719,-7.51745 -0.42076,-0.63858 -1.07234,-1.15657 -1.77921,-1.44835 -0.76873,-0.31732 -1.65056,-0.20538 -2.47585,-0.30806 -1.01547,0.47106 -2.15612,0.73462 -3.04642,1.41318 -2.9467,2.24592 -5.53454,6.23217 -7.25046,9.3092 -4.5457,8.15145 -7.43213,17.09247 -9.9685,26.02724 -1.60152,6.98927 -3.13161,8.67091 -0.38654,15.60434 0.27197,0.68692 1.24575,1.30015 1.94522,1.06232 1.29469,-0.44021 2.07858,-1.78247 3.03817,-2.75674 2.60894,-2.64889 5.12215,-5.82346 7.47907,-8.67092 0.64217,-0.83319 6.03265,-7.45082 6.31835,-9.1187 0.44178,-2.57899 -0.0123,-6.39717 -2.82241,-7.61873 -2.17375,-0.94493 -7.12027,-0.92583 -9.12401,-1.02337 -6.10038,-0.0131 -6.53034,-0.0509 -12.74377,0.0903 -2.05683,0.0467 -4.11319,0.11313 -6.16927,0.18577 -1.16852,0.0413 -5.97361,-0.0144 -7.66224,0.77683 -0.43831,0.20537 -0.60425,0.75633 -0.90638,1.13449 0.74089,1.3328 1.34066,2.75447 2.22265,3.99839 0.4223,0.59559 3.20439,2.17818 3.50685,2.36405 3.39231,2.08476 6.74695,4.23025 10.01443,6.50737 8.81553,6.3259 -0.96812,-0.85222 7.33056,5.71714 0.38793,0.3071 0.98436,0.37925 1.25406,0.79405 1.26566,1.94653 1.7561,4.11712 1.10296,6.39198 -0.32361,1.12714 -1.10927,2.06645 -1.66391,3.09967 -1.97561,1.91795 -2.6118,3.10681 -5.41398,3.70438 -2.70566,0.57699 -5.91949,-0.67856 -8.02784,-2.30408 -0.66146,-0.50997 -1.18511,-1.17725 -1.77767,-1.76587 0.9485,2.10761 -0.0681,0.0184 0.0116,-0.94824 0.0551,-0.66827 0.31546,-1.33731 0.70222,-1.88506 0.54761,-0.77557 1.26454,-1.43821 2.03551,-1.99227 2.91202,-2.09273 4.88397,-2.47152 8.34105,-3.69377 1.93447,-0.38087 3.84706,-0.8977 5.8034,-1.14261 3.95124,-0.49463 7.27828,-0.51826 11.16165,0.25054 1.0516,0.20818 2.05887,0.61328 3.04685,1.02933 0.61698,0.25982 1.48849,1.60698 1.74759,0.98969 0.36243,-0.86345 -0.71551,-1.7308 -1.07327,-2.5962 -0.0506,0.17225 -0.0276,0.38707 -0.1517,0.51675 -1.52222,1.59015 -0.30505,-0.64301 -1.83249,1.47385 -1.53445,2.12657 -0.86999,4.2375 -0.20914,6.56572 0.93432,1.82973 1.78349,3.7055 2.80297,5.48918 1.02844,1.79934 5.34113,8.07999 6.35091,9.50478 2.35992,3.32983 4.87214,6.82048 7.64567,9.8398 0.93768,1.02078 2.00953,1.90965 3.0143,2.86447 0.69814,0.34091 1.32888,0.89014 2.09441,1.02272 1.11072,0.19236 1.43662,-0.8967 1.47665,-1.66073 0.10786,-2.05921 -1.74281,-4.47829 -2.54693,-5.80207 -0.27574,-0.45393 -0.68487,-0.81196 -1.0273,-1.21795 -1.09948,-0.71342 -1.40138,-1.08827 -2.75799,-1.24442 -1.64416,-0.18925 -3.21594,0.46543 -4.05425,1.94133 -0.2816,0.49578 -0.36874,1.07909 -0.55311,1.61864 0.008,0.6596 -0.0608,1.32478 0.0251,1.97881 0.37626,2.86217 1.53052,4.84572 3.0065,7.49975 2.18219,3.92387 5.63365,6.94704 8.94634,9.87196 3.83734,2.89863 5.19241,4.20497 9.47398,6.35001 1.12028,0.56125 4.24385,2.36661 6.02168,1.32521 1.03931,-0.6088 0.43793,-2.54015 0.35024,-3.20895 -0.92324,-3.87866 -0.24352,-1.17091 -1.41842,-5.42585 -0.0247,-0.0895 -1.55216,-5.75586 -1.65889,-6.00888 -0.72051,-1.7081 -1.5754,-3.36103 -2.49814,-4.96892 -0.23548,-0.41033 -0.63708,-0.69958 -0.95562,-1.04937 -0.3478,-0.12848 -0.67862,-0.31903 -1.0434,-0.38546 -0.39132,-0.0713 -0.79574,-0.004 -1.19308,-0.0218 -0.50202,-0.0229 -1.00568,-0.038 -1.50423,-0.1013 -2.02394,-0.25687 -3.90527,-0.8725 -5.60611,-2.02666 -0.58705,-0.51954 -1.08309,-1.16521 -1.76115,-1.55863 -0.14251,-0.0827 10e-4,0.62606 -0.0864,0.48665 -1.51677,-2.40795 -2.21431,-5.54221 -1.20346,-8.29611 0.39068,-1.06433 1.13911,-1.96065 1.70867,-2.94097 0.92892,-1.01466 1.76894,-2.11853 2.78676,-3.04398 2.38739,-2.17073 5.57185,-4.26294 8.4623,-5.65225 1.53685,-0.7387 3.12324,-1.40574 4.77013,-1.84771 1.21822,-0.32693 2.71849,0.27311 3.75818,-0.44102 0.59183,-0.40651 0.0131,-1.43593 0.0197,-2.1539 0.23079,0.52134 0.68048,0.99401 0.69237,1.56402 0.0408,1.95503 -1.56491,4.25017 -2.57024,5.62323 -0.95721,1.30734 -2.01811,2.53799 -3.10069,3.74357 -3.75263,4.17903 -4.18288,4.30915 -8.49185,8.03876 -3.10403,2.04953 -4.91765,3.68799 -8.51854,4.5734 -1.01641,0.24992 -2.10035,0.31851 -3.13571,0.16499 -0.83303,-0.12352 -1.51046,-0.78376 -2.33048,-0.97552 -0.16693,-0.039 -0.30408,0.49124 -0.38554,0.34039 -0.5421,-1.00379 -0.77866,-2.14467 -1.16799,-3.21701 -0.0853,-1.42823 -0.32761,-2.85571 -0.25602,-4.2847 0.16405,-3.2743 1.23904,-7.7849 2.1983,-10.84362 1.51546,-4.83225 3.56079,-9.52629 6.65834,-13.56292 -0.38993,-1.46808 -0.43899,-3.0726 -1.16978,-4.40424 -0.19804,-0.36087 -0.82584,-0.0248 -1.23473,0.0228 -0.66676,0.0775 -1.33431,0.17834 -1.98287,0.35139 -1.79765,0.47968 -3.52053,1.15571 -4.94496,2.41676 -0.90634,0.80239 -1.57788,1.83615 -2.36681,2.75422 -0.54377,1.42399 -1.33447,2.77688 -1.63129,4.27198 -0.73607,3.70766 -0.2762,8.53215 0.15384,12.19279 0.56294,4.79194 0.77921,6.94786 3.80215,11.09747 0.19573,0.26869 0.53275,-0.39772 0.79912,-0.59658 -0.0515,-1.10924 -0.0151,-2.22607 -0.15446,-3.32772 -0.46135,-3.64565 -1.49671,-7.93061 -2.56883,-11.38746 -1.55074,-5.00001 -3.11027,-9.01152 -6.05579,-13.45965 -0.78706,-1.18857 -1.9725,-2.05862 -2.95875,-3.08793 0.0347,0.80149 -0.16438,1.64847 0.10402,2.40448 0.0804,0.22638 0.38103,-0.33123 0.61798,-0.37074 0.91474,-0.15256 1.85359,-0.0925 2.77527,-0.19517 2.37111,-0.26413 5.12417,-0.68317 7.35236,-1.55016 1.28878,-0.50147 2.46093,-1.26233 3.6914,-1.8935 0.84686,-0.96946 1.95095,-1.7641 2.54058,-2.90838 1.17016,-2.27092 0.69378,-4.62772 -0.0724,-6.88613 -0.41623,-1.227 -1.10979,-2.34224 -1.62438,-3.53134 -2.04354,-4.72214 -1.42316,-2.98505 -2.26713,-8.24264 0.53036,-3.91939 0.33098,-5.88296 2.63049,-9.28795 0.71647,-1.06092 1.97288,-1.65317 2.79269,-2.63643 0.49717,-0.59629 0.43688,-2.4302 1.11185,-2.04658 3.19014,1.81308 1.09276,9.06891 0.91669,10.55396 -1.40369,2.83359 -2.50682,5.83708 -4.21106,8.50075 -3.40365,5.31979 -7.65249,10.67569 -13.77653,13.10431 -1.63207,0.64723 -3.52047,-0.0421 -5.2648,0.15762 -0.49553,0.0567 -0.95738,0.88234 -1.36988,0.60196 -0.64029,-0.4352 -0.59777,-1.42835 -0.89665,-2.14252 0.0582,-1.94143 -0.16384,-2.39522 0.8427,-4.15367 1.77723,-3.10489 5.35361,-4.51775 8.30655,-6.17697 2.2459,-1.15014 5.77024,-2.74327 7.467,-4.64248 2.243,-2.51061 2.03178,-5.22124 1.78963,-8.33754 -0.29798,-1.19281 -0.42958,-2.44003 -0.89393,-3.57843 -0.79365,-1.94565 -1.76959,-3.82132 -2.85771,-5.61894 -0.90757,-1.49935 -2.49656,-3.66829 -4.55807,-3.84588 -0.69925,-0.0602 -1.47976,0.22811 -1.97755,0.72287 -0.64097,0.63707 -0.79811,1.62168 -1.19717,2.43252 -0.1035,1.21656 -0.38058,2.43074 -0.31051,3.64968 0.23918,4.16075 1.61457,7.01406 3.57248,10.80319 1.80817,3.49935 3.81244,6.36547 6.87708,8.88741 1.21685,1.00137 2.68648,1.64822 4.02972,2.47232 1.04737,-0.15724 2.17971,-0.0296 3.14212,-0.47172 0.78451,-0.3604 1.32491,-1.1289 1.84386,-1.81885 1.90063,-2.52693 2.73307,-6.07669 2.96015,-9.1616 0.0931,-1.26429 0.004,-2.53541 0.006,-3.80312 -0.20537,-1.27609 -0.38508,-2.55656 -0.61613,-3.82825 -0.48946,-2.69401 -1.10787,-5.36324 -1.61838,-8.05334 -0.22738,-1.1982 -0.45627,-2.39667 -0.64049,-3.60226 -0.12797,-0.8375 0.017,-1.73701 -0.2957,-2.52439 -0.57616,-1.45061 -1.548,-2.71082 -2.32201,-4.06623 0.14824,0.27641 0.33084,0.53699 0.4447,0.82924 0.38688,0.99305 1.10108,3.6006 1.3122,4.44318 1.04445,4.16851 1.82238,8.40439 2.15346,12.69375 0.0619,3.51439 0.66903,8.29292 -1.69469,11.3369 -1.44617,1.86238 -3.9509,1.9045 -6.05646,1.99944 -2.28079,-0.3326 -3.37858,-0.25249 -5.41336,-1.56442 -0.75868,-0.48917 -3.02919,-2.50712 -3.59748,-3.64339 -2.18351,-4.36573 -2.07716,-5.38493 -3.16415,-10.27163 -0.25346,-5.17554 -0.72749,-7.33787 0.50847,-12.46679 0.45691,-1.89607 1.10096,-3.7706 2.01726,-5.4923 1.47921,-2.77939 4.15964,-5.4092 6.7827,-7.10986 1.24165,-0.80502 2.65786,-1.301834 3.98679,-1.952751 1.27785,-0.308798 2.53285,-0.735558 3.83356,-0.926399 1.01965,-0.149606 2.31784,0.592558 3.09042,-0.08949 0.61933,-0.546751 0.47557,-1.981611 -0.18992,-2.471121 -0.54351,-0.399786 -0.1706,1.374005 -0.50469,1.960186 -1.6379,2.873745 -5.13742,6.044635 -7.24549,8.204255 -2.22075,1.96252 -4.40857,3.96293 -6.66223,5.88756 -3.4175,2.91854 -13.97213,11.55758 -17.27393,14.15561 -6.14291,4.83357 -10.0517,8.07624 -16.86316,11.60063 -1.60913,0.83259 -3.38009,1.30572 -5.07013,1.95859 0.0959,0.71563 -0.21183,2.66833 0.28761,2.14691 0.6468,-0.67529 0.0675,-1.88739 0.32487,-2.78636 0.39112,-1.36632 1.00035,-2.66371 1.60363,-3.95052 2.20487,-4.70307 4.94445,-9.17579 8.28768,-13.1559 0.74188,-0.65143 1.48376,-1.30286 2.22564,-1.95429 -0.13696,-0.9418 -1.11574,-2.18595 -0.41087,-2.82542 0.61618,-0.55899 0.67478,1.52097 1.0089,2.28289 0.45086,1.02813 0.84167,2.08429 1.34605,3.08725 2.38705,4.7466 2.78829,5.20599 5.34347,9.28168 1.67745,2.08003 3.39455,4.87618 6.11622,5.8868 2.46811,0.91647 4.21123,-0.30873 6.03854,-1.75361 0.94028,-0.7435 5.11389,-5.04435 5.89013,-5.83396 1.91604,-1.6288 3.40098,-3.31898 5.9158,-3.99368 0.80308,-0.21546 1.67022,-0.13829 2.49429,-0.0275 1.66045,0.2233 3.42634,1.03107 4.76828,2.00329 0.7774,0.56322 1.42555,1.28609 2.13832,1.92913 1.30005,0.59729 0.87069,0.29178 1.51986,3.23491 0.81013,3.67287 -1.3e-4,7.78947 -1.7751,11.06651 -0.56972,1.05183 -1.40934,1.93325 -2.11401,2.89989 -0.82268,0.48843 -1.55172,1.1901 -2.46803,1.46532 -0.87947,0.26414 -1.84301,0.22648 -2.75291,0.10279 -2.06674,-0.28096 -4.28048,-1.41938 -5.935,-2.60607 -0.20899,-0.14989 -3.64918,-3.15561 -4.45777,-3.86095 -0.69697,-1.27482 -1.50459,-2.49512 -2.0909,-3.82447 -1.57009,-3.55987 -2.68623,-7.88584 -1.20949,-11.6924 1.06509,-2.74545 2.39567,-3.41299 4.5424,-5.24963 3.29276,-1.78574 2.95905,-1.77947 6.46907,-2.99969 0.87846,-0.30538 2.30958,0.0569 2.67322,-0.79909 1.91075,-4.49796 -0.71521,-3.57285 -2.39393,-3.68245 -1.24903,-0.0815 -2.49208,-0.23752 -3.73813,-0.35629 -4.19609,-0.66137 -5.88288,-0.79893 -10.0911,-2.03393 -5.31364,-1.55941 -10.34025,-3.87374 -14.866,-7.08101 -1.20791,-0.85601 -2.30013,-1.86457 -3.4502,-2.79685 -0.23785,0.0747 -0.52365,0.38572 -0.71356,0.22418 -0.5487,-0.46672 -1.36524,-2.005713 -0.97969,-2.885667 0.37065,-0.845928 1.77522,-1.066305 2.467,-1.106281 0.73565,-0.04251 1.47163,0.07904 2.20745,0.11856 2.61515,0.536567 3.28145,0.542735 5.85525,1.665333 4.30585,1.878055 8.03723,4.805875 11.50213,7.925745 0.46688,0.35563 1.71815,1.53418 2.57201,1.57814 0.58501,0.0301 0.59909,-0.68671 0.66888,-1.00566 0.061,-0.279 0.0904,-0.56551 0.17007,-0.83976 0.0916,-0.31505 0.22819,-0.61522 0.34229,-0.92283 0.22061,-0.30063 0.38342,-0.65381 0.66181,-0.90187 1.28818,-1.14783 3.66263,-1.44496 5.26647,-1.69995 2.6401,-0.41975 3.43155,-0.44387 6.17252,-0.69581 0.91255,-0.0594 5.67518,-0.34666 6.65384,-0.49758 3.27906,-0.50565 5.61803,-1.8475 8.00317,-4.085119 1.84084,-2.030973 1.3275,-1.362212 2.96046,-3.575391 0.4179,-0.566378 0.82612,-1.139878 1.23209,-1.714862 0.33185,-0.470001 0.98687,-1.598793 1.57699,-1.976023 0.17554,-0.112215 0.40755,-0.08679 0.61133,-0.130185 0.25234,0.16442 0.52671,0.29918 0.75703,0.493255 0.3138,0.264422 0.76937,1.273392 0.86631,0.874651 0.13478,-0.554442 -1.22364,-1.787059 -0.6991,-1.562502 0.5747,0.246026 0.64437,1.075206 0.89678,1.647129 0.82183,1.862162 0.70422,2.056286 0.98703,4.077004 -0.12993,1.257565 -0.13214,3.591558 -1.68216,4.186013 -1.1693,0.44845 -2.58413,-0.711785 -3.43565,-1.286851 -1.35134,-1.056095 -1.30894,-0.972143 -2.56683,-2.162273 -1.21893,-1.153266 -1.8667,-2.077995 -3.57602,-2.463424 -5.32338,-1.113444 -10.70985,-2.067084 -16.14933,-2.329426 -3.39137,0.203737 -6.01854,0.159363 -9.02449,1.992915 -0.55027,0.335645 -1.08096,0.729914 -1.50164,1.218256 -0.3212,0.372856 -0.78924,0.832297 -0.67774,1.311627 0.3506,1.507283 1.30772,2.805205 1.96158,4.207806 0.27969,0.4099 0.50454,0.86317 0.83906,1.22968 0.85338,0.93499 2.06826,1.77814 3.29318,2.12537 2.96195,0.83964 5.6164,-0.19767 8.28567,-1.38906 0.98879,-0.6334 2.03751,-1.18179 2.96637,-1.9002 2.33733,-1.80773 5.00345,-4.766018 6.10369,-7.556708 0.29522,-0.748808 0.69307,-1.560716 0.54624,-2.352114 -0.31623,-1.70444 -1.25475,-3.232036 -1.88212,-4.848055 -0.99552,-1.273178 -1.25555,-1.884278 -2.78984,-2.645138 -2.37466,-1.177602 -5.54204,-1.213689 -8.05943,-0.609849 -1.15369,0.276733 -2.2399,0.783022 -3.35985,1.174531 -2.8867,1.903034 -3.90777,2.186895 -5.94181,5.144103 -1.64436,2.390664 -2.48326,4.972963 -2.99104,7.800827 -0.23419,1.304234 -0.39116,2.633477 -0.36657,3.958343 0.02,1.07869 0.33293,2.13191 0.4994,3.19787 0.61675,1.14631 2.10789,5.71611 4.5345,6.33776 0.71987,0.18442 1.50382,-0.0363 2.21512,-0.25135 0.90684,-0.27423 1.75427,-0.72886 2.57741,-1.1979 2.40508,-1.37047 3.18033,-2.2113 5.27318,-4.00741 0.64849,-0.73719 1.32599,-1.44984 1.94546,-2.21157 0.48603,-0.59764 1.35957,-1.09236 1.3679,-1.86264 0.0169,-1.562264 -0.71349,-3.054979 -1.29906,-4.503451 -0.0749,-0.185235 -0.40266,-0.237207 -0.58104,-0.147201 -0.94578,0.477229 -3.52567,3.494011 -3.70432,3.687602 -6.43671,7.40526 -12.92137,14.79794 -20.19654,21.40617 -2.11036,1.9169 -4.25991,3.79814 -6.52335,5.53162 -1.74529,1.33666 -3.65569,2.44268 -5.48353,3.66402 -1.09515,0.45999 -2.57174,0.43045 -3.28544,1.37996 -0.51048,0.67916 -0.41919,2.16497 0.35055,2.52463 0.69185,0.32327 -0.10723,-1.57054 0.16182,-2.28522 0.46668,-1.23971 1.27759,-2.32317 1.99275,-3.43816 2.2445,-3.4994 3.2369,-4.55145 5.86784,-7.82788 1.07121,-1.05581 2.04684,-2.21833 3.21365,-3.16743 0.75582,-0.61479 1.94982,-0.69687 2.51379,-1.49135 0.38842,-0.54718 -0.63846,-2.28765 -0.0263,-2.0129 0.87156,0.39113 0.89417,1.69101 1.26796,2.57015 0.75723,1.78102 2.13296,5.86376 2.72913,7.5845 0.9684,3.08475 1.57087,4.77869 2.28648,7.85885 0.16867,0.726 0.18955,1.48436 0.39485,2.20086 0.0503,0.17545 0.48714,0.54279 0.35518,0.4167 -0.50415,-0.48173 -1.262,-1.5133 -1.59159,-1.93297 -2.71492,-3.34437 -5.52912,-6.71092 -9.02192,-9.28295 -0.94311,-0.69448 -1.92064,-1.35527 -2.96511,-1.88523 -0.92594,-0.46982 -1.94326,-0.73218 -2.9149,-1.09827 -2.2127,-0.18075 -2.96057,-0.5237 -5.0405,0.34956 -2.22596,0.93456 -3.68767,3.05163 -4.41829,5.27517 -0.30505,0.92835 -0.41716,1.90932 -0.62574,2.86398 -0.0695,1.15294 -0.20518,2.30378 -0.20864,3.4588 -0.0122,4.0822 0.57043,8.17693 1.74786,12.08555 0.31989,1.06192 0.66745,2.12292 1.14445,3.12417 0.81104,1.70241 1.8065,3.31067 2.70976,4.966 -0.36816,-0.65549 -0.85398,-1.25763 -1.10447,-1.96647 -0.0631,-0.17855 0.39814,0.10648 0.50292,0.26422 0.69913,1.05246 1.15403,2.25547 1.86479,3.30012 0.13725,0.20172 -0.13622,-0.48066 -0.11165,-0.72341 0.16179,-1.59815 0.822,-2.57091 1.51616,-4.08913 0.88407,-1.28817 1.7232,-2.60837 2.65222,-3.86452 3.00523,-4.06347 5.9895,-7.54712 9.2853,-11.42321 2.00067,-2.35293 3.99763,-4.70947 6.03969,-7.02658 3.59164,-4.07539 7.33932,-8.01158 10.88921,-12.1245 1.72821,-3.44016 3.43597,-4.41604 -0.84555,-7.89814 -0.79398,-0.64573 -2.04522,-0.26361 -3.06506,-0.17817 -1.62428,0.13607 -3.22775,0.47854 -4.81747,0.83853 -5.2916,1.19828 -7.06874,1.99397 -12.28255,3.81643 -2.72481,1.24759 -7.24381,2.99212 -9.66311,5.14998 -2.56369,2.28664 -1.20709,3.98668 0.98554,6.57708 0.8998,1.06303 3.98502,0.62441 4.80956,0.60147 5.67056,-0.7422 11.38697,-1.546 17.12247,-1.35175 0.85053,0.0288 2.03133,0.93297 2.54066,0.2512 0.5416,-0.72498 -0.52489,-1.7321 -0.78734,-2.59815 -0.0654,0.45832 -0.009,0.95139 -0.19616,1.37495 -0.46707,1.0586 -3.27457,4.85675 -3.63979,5.38282 -3.70324,5.33421 -7.20692,10.80628 -10.37102,16.48029 -3.92919,7.43821 -3.94724,7.10708 -7.22324,14.72216 -2.33839,5.43561 -3.47243,6.11943 -1.44651,12.03347 0.74475,2.17406 1.94142,-17.13474 2.46733,-6.43763 1.30462,-3.1708 4.87027,-11.80348 6.0136,-14.73134 0.50064,-1.28205 4.85396,-12.17024 4.72948,-14.46284 -0.11817,-2.17647 -1.12257,-4.32374 -2.4214,-6.07418 -0.46718,-0.62962 -1.5527,-0.21869 -2.32906,-0.32803 -0.89915,0.37751 -1.863,0.62788 -2.69745,1.13254 -5.04339,3.05015 -7.25827,8.40375 -7.99126,14.03598 -0.20872,1.60371 -0.13973,3.23145 -0.20959,4.84717 0.22598,1.49648 0.13967,3.07495 0.67796,4.48943 1.17502,3.08765 2.8329,6.48908 6.23711,7.61067 2.72328,0.89725 5.83423,0.15804 8.3639,-0.84317 1.55594,-0.61582 2.96375,-1.55465 4.44563,-2.33198 3.42966,-3.02172 5.0876,-3.81234 6.94868,-8.22381 2.48586,-5.89249 1.63373,-12.58112 0.23686,-18.59447 -0.4783,-2.05903 -1.19466,-4.05541 -1.79198,-6.08312 -0.27578,-0.52279 -4.04536,-8.38899 -5.77393,-9.82063 -0.46574,-0.38573 0.33319,1.16311 0.52633,1.73617 0.0525,0.1559 -0.25053,-0.4081 -0.1038,-0.48251 0.5429,-0.27531 3.37532,-0.0179 3.50351,-0.0112 2.01439,0.24604 3.54855,0.34381 5.50991,0.95928 0.82357,0.25844 1.54277,1.18097 2.38739,1.00296 0.48226,-0.10165 -0.16149,-1.95881 -0.18744,-1.46664 -0.22894,4.34068 1.12503,-0.0809 -1.16062,5.22759 -0.83199,1.24404 -1.5921,2.53928 -2.49595,3.73214 -1.87631,2.47626 -4.94176,5.88921 -7.28817,7.91402 -1.77909,1.53524 -4.33989,3.53532 -6.83505,4.01596 -0.4613,0.0889 -0.91269,-0.22311 -1.36903,-0.33466 0.27005,0.58988 0.17884,1.91913 0.81015,1.76965 0.61983,-0.14677 -0.3185,-1.24233 -0.35043,-1.8785 -0.1259,-2.509 0.59927,-5.35655 1.9015,-7.49764 0.46582,-0.76588 1.10779,-1.40963 1.66168,-2.11445 1.71547,-1.18283 2.27729,-1.87699 4.41642,-2.15459 0.74207,-0.0963 1.5696,0.45606 2.24132,0.1263 0.40725,-0.19992 -0.0106,-1.72372 0.23292,-1.34094 1.62872,2.56025 0.50688,5.13931 0.0601,7.83201 -0.70932,2.00893 -1.31246,4.05856 -2.12795,6.02678 -1.74848,4.22003 -4.52785,9.67804 -7.09001,13.44634 -1.99209,2.92986 -4.29048,6.03477 -7.54767,7.72007 -0.73629,0.38096 -1.61976,0.35407 -2.42965,0.5311 -0.56849,-0.20896 -1.17638,-0.3321 -1.70549,-0.62688 -1.06966,-0.59594 -2.28384,-1.88282 -3.05091,-2.77699 -1.86094,-2.1693 -3.39477,-4.60157 -5.15224,-6.85026 -0.66352,-0.82619 -1.30268,-1.67255 -1.99056,-2.47858 -1.17228,-1.3736 -2.52033,-2.77882 -3.87414,-3.98046 -0.57655,-0.51176 -1.15114,-1.03443 -1.79517,-1.45815 -0.4642,-0.30541 -1.49678,-1.26958 -1.50634,-0.714 -0.0213,1.23749 0.97327,2.27599 1.45991,3.41398 0.3755,0.28726 0.73025,0.60389 1.12649,0.86178 2.43504,1.58482 5.01353,2.95361 7.6019,4.26331 6.14512,3.10941 12.42117,6.0576 19.16899,7.61572 1.85286,0.24535 3.69596,0.58116 5.55856,0.73606 1.35388,0.11259 3.01741,0.91768 4.07513,0.0651 0.8777,-0.70747 -0.11455,-2.265 0.0395,-3.38174 0.0206,-0.14947 0.50263,0.10946 0.39707,0.21727 -1.18911,1.21455 -3.29466,1.29684 -4.21994,2.86256 -1.11901,0.89859 -2.27327,1.75498 -3.35704,2.69579 -2.77591,2.40975 -5.73278,5.28401 -8.06594,8.10646 -1.35234,1.63593 -2.6809,3.30711 -3.78996,5.11683 -2.52162,4.11467 -2.96697,6.32876 -4.43528,10.81368 -0.28307,4.32179 -1.33653,6.58116 2.85537,10.01854 2.33391,1.91383 9.48497,0.18397 11.13776,-0.13241 7.43111,-1.42246 10.98847,-2.58825 18.38736,-4.65055 5.09555,-1.8658 9.95722,-2.66797 13.57763,-7.03854 2.32242,-2.80365 2.39319,-6.45525 2.12857,-9.82393 -0.29966,-3.81464 -1.63132,-8.50661 -2.53479,-12.16247 -1.57071,-5.41703 -1.80313,-7.58183 -5.04933,-12.56171 -0.61336,-0.94093 -1.41754,-1.90148 -2.47111,-2.29081 -2.14543,-0.79282 -3.64775,2.54679 -4.12606,3.54909 -0.74107,1.55291 -1.19614,3.22677 -1.79421,4.84016 -0.55282,2.13453 -1.18535,4.24998 -1.65847,6.40358 -1.14008,5.18956 -2.03349,11.07719 -2.5684,16.34045 -0.22857,2.24901 -1.11007,12.92806 -0.58493,15.70377 0.44452,2.34957 1.71976,4.4626 2.57964,6.6939 0.67115,0.78685 1.15997,1.77647 2.01345,2.36053 0.58691,0.40163 1.37548,0.45642 2.08657,0.4452 0.68727,-0.0109 1.3581,-0.25895 1.99809,-0.50968 2.00185,-0.78426 3.90101,-2.40482 5.60929,-3.67133 0.98422,-0.79277 1.93948,-1.62529 3.02834,-2.27818 0.30218,-0.18119 1.0079,-0.0927 0.96023,-0.44185 -0.16052,-1.17547 -0.97574,-2.16286 -1.46361,-3.24429 -0.0135,0.24727 0.0527,0.51237 -0.0405,0.74181 -0.18901,0.46537 -0.52237,0.85808 -0.78356,1.28713 -1.2284,1.2228 -1.7519,1.95774 -3.41648,2.68413 -2.40132,1.04789 -5.06531,0.75618 -7.50389,0.0315 -0.85645,-0.25451 -1.66771,-0.64178 -2.50156,-0.96267 -0.72962,-0.45253 -1.34383,-1.20581 -2.18887,-1.35756 -0.31146,-0.0559 0.0698,1.13796 -0.17179,0.93362 -0.57237,-0.48409 -0.87337,-1.25579 -1.06578,-1.98031 -0.44066,-1.65926 0.0599,-3.48853 0.81831,-4.95072 0.50262,-0.96902 1.23939,-1.79733 1.85909,-2.69599 0.94573,-0.81875 1.80482,-1.74987 2.83719,-2.45625 4.40791,-3.01603 11.16026,-4.71641 16.46902,-4.00824 1.07971,0.14403 2.09596,0.59415 3.14394,0.89123 -0.0297,-0.44247 0.0604,-1.74491 -0.0891,-1.32742 -0.24913,0.69552 0.0602,1.52346 -0.22521,2.2049 -0.86747,2.0712 -3.19465,3.99876 -4.92002,5.166 -3.86619,2.61555 -5.22515,2.7696 -9.71146,4.38833 -1.99503,0.37279 -3.96554,0.91709 -5.9851,1.11836 -3.84846,0.38354 -7.55795,0.077 -11.32031,-0.75303 -1.55016,-0.342 -3.07476,-0.81573 -4.55589,-1.38686 -1.07805,-0.4157 -1.95482,-1.75651 -3.09391,-1.56293 -0.67677,0.11501 0.25054,1.3499 0.3758,2.02485 0.078,-0.26807 0.004,-0.64587 0.23407,-0.80423 1.01208,-0.69698 3.95349,-0.82769 4.78755,-0.89175 3.60255,-0.27671 7.2338,-0.34574 10.82649,0.1035 0.73523,0.0576 1.99351,0.87914 2.2057,0.17284 0.36701,-1.22157 -0.68933,-2.46116 -1.16232,-3.64573 -0.18194,-0.45567 -0.5214,-0.83137 -0.78942,-1.24233 -1.60835,-2.46616 -3.27632,-4.89368 -4.83169,-7.39439 -1.57247,-2.50004 -3.05266,-5.10199 -4.90801,-7.40967 -0.80957,-1.00695 -1.78817,-2.13519 -2.86946,-2.86953 -0.62051,-0.42141 -1.32433,-0.70472 -1.9865,-1.05709 -0.8494,-0.23193 -1.68287,-0.53309 -2.54821,-0.69579 -2.28558,-0.42973 -4.96051,-0.50803 -7.25261,-0.55215 -4.88301,-0.094 -9.77205,0.12758 -14.65095,-0.19437 -1.33609,-0.11642 -2.68468,-0.13303 -4.00829,-0.34926 -0.98699,-0.16123 -1.94989,-1.09894 -2.89735,-0.77885 -0.53542,0.18088 -0.0566,2.16607 0.2311,1.67961 0.35683,-0.60343 -0.23552,-1.44994 0.0193,-2.10303 1.15334,-2.95606 3.96137,-4.68349 6.2247,-6.62289 2.29263,-1.36523 4.49335,-2.8982 6.87789,-4.09567 3.651,-1.83347 17.29896,-7.34392 20.64447,-8.66229 3.75228,-1.47867 7.47586,-3.044 11.30144,-4.32112 7.77179,-2.5945 8.92161,-2.57559 15.92775,-3.76828 0.0528,-0.94302 1.04294,-2.49772 0.15847,-2.82907 -0.88027,-0.32977 -1.03688,1.5828 -1.6959,2.2531 -1.28351,1.30548 -2.74945,2.41832 -4.10582,3.64793 -1.7599,1.59545 -3.54251,3.16792 -5.24261,4.82694 -6.19223,6.04258 -5.89763,6.06441 -11.56866,12.89873 -4.82342,7.33244 -5.04533,6.96121 -8.43705,14.72209 -0.82519,1.88819 -2.04416,3.72787 -2.18236,5.78385 -0.13938,2.07335 0.61668,4.14751 1.38497,6.0783 0.17124,0.43037 0.81439,0.69077 1.26364,0.578 0.81256,-0.20396 1.38413,-0.94423 2.07619,-1.41634 2.60419,-2.61881 3.75342,-3.68867 6.27812,-6.64737 2.86649,-3.35925 5.70043,-6.99593 8.05143,-10.73268 3.48991,-5.54698 4.03321,-7.28239 6.71385,-13.20794 0.46101,-1.33887 3.40379,-9.21475 3.34184,-11.27639 -0.0629,-2.09265 -0.76929,-4.14016 -1.52343,-6.09322 -0.23664,-0.61284 -0.72662,-1.30453 -1.37467,-1.41225 -1.66402,-0.27659 -4.91541,3.0648 -5.42823,3.49438 -1.37367,1.41203 -2.78974,2.78402 -4.12102,4.2361 -1.67222,1.82395 -3.28451,3.70247 -4.88634,5.58855 -6.38093,7.51322 -12.34674,15.36338 -17.90071,23.50709 0.30812,1.76692 0.30939,3.6159 0.92436,5.30077 0.10943,0.29979 0.59507,-0.24944 0.84864,-0.44323 0.69866,-0.53394 1.33265,-1.14762 1.99289,-1.7284 3.93454,-3.46095 7.80162,-6.99759 11.71004,-10.48778 2.42118,-2.16842 8.1378,-7.23536 10.47341,-9.53586 2.76514,-2.72357 6.93766,-6.91557 8.08548,-10.84455 0.22218,-0.76052 0.13006,-1.57929 0.19509,-2.36894 -0.83154,-1.49682 -1.47853,-3.11224 -2.49462,-4.49046 -0.44606,-0.60503 -1.17063,-0.94948 -1.80879,-1.34669 -3.34347,-2.08106 -7.28133,-2.94154 -10.59075,-5.08716 -0.0175,0.44883 0.17673,1.73276 -0.0525,1.34649 -0.3118,-0.5254 -0.42719,-1.24119 -0.2277,-1.81865 0.31278,-0.9054 0.96427,-1.68913 1.66508,-2.34216 1.12213,-1.04561 2.45761,-1.83832 3.73401,-2.68879 4.51478,-3.0082 6.33928,-3.8808 11.25339,-6.61251 4.90617,-2.31715 8.45688,-4.33318 13.77278,-5.55047 1.62074,-0.37113 3.34633,-0.0695 4.9695,-0.42989 0.43868,-0.0974 0.85745,-1.3207 1.00653,-0.89679 1.3214,3.75738 -0.77441,8.28935 -1.70267,11.61318 -1.14109,2.95492 -2.23818,5.92721 -3.42325,8.86476 -2.58324,6.40327 -6.89952,16.49252 -9.75065,22.61344 -3.37319,7.24171 -6.78404,14.30484 -11.15495,21.0043 -1.4494,2.22155 -3.19815,4.23273 -4.79722,6.34909 -1.24658,1.21219 -2.38279,2.54935 -3.73974,3.63658 -0.74615,0.59785 -2.09038,0.52039 -2.51663,1.37624 -0.42026,0.84383 0.61238,1.8669 0.43984,2.79368 -0.0877,0.47102 -0.61178,-0.77409 -0.72935,-1.23856 -0.36429,-1.43916 0.16544,-2.61973 0.52756,-3.9841 1.02189,-1.95801 1.32435,-2.91872 2.99283,-4.49139 1.28405,-1.21033 3.00858,-2.26309 4.78971,-2.54084 1.88567,-0.29405 2.51775,0.25979 4.1271,0.98364 -0.0653,-0.47266 -0.64718,-1.57294 -0.19592,-1.41796 0.61774,0.21216 0.72849,1.0924 0.99029,1.69078 0.28577,0.65318 0.43692,1.35742 0.64206,2.04023 0.64982,2.16304 1.188,4.3618 1.97633,6.48166 1.0407,2.75962 0.87139,2.56951 3.07048,6.05507 0.30751,0.4874 1.0275,1.28547 1.77197,0.93666 0.87987,-0.41224 1.5242,-2.34113 1.78233,-2.89347 1.45461,-3.43772 2.90059,-6.87911 4.3595,-10.31501 0.31224,-0.73536 2.41819,-5.61193 2.79541,-6.69163 0.20745,-0.59378 0.31223,-1.21858 0.46834,-1.82787 -0.59814,-1.45416 -1.09126,-2.9561 -1.79443,-4.36248 -0.29909,-0.59821 -0.82076,-0.45543 -1.17099,-0.082 -1.03646,1.10503 -1.03966,2.89527 -1.52362,4.22706 -0.5961,2.71774 -1.14349,5.43218 -1.48734,8.1962 -0.0639,0.51393 -0.54182,4.67678 -0.33888,5.40875 0.462,1.66627 1.36865,3.17592 2.05297,4.76388 0.29034,0.26493 0.51853,0.62089 0.87102,0.79478 0.14335,0.0707 2.29622,0.33063 2.36021,0.34113 0.43154,0.0708 0.86448,0.14199 1.28686,0.25525 0.3642,0.0977 1.10454,0.75107 1.06691,0.37589 -0.1101,-1.09764 -0.88869,-2.01938 -1.33304,-3.02908 0.12086,0.48521 0.17735,0.31765 -0.5411,0.64492 -1.60422,0.73076 -3.37585,0.95651 -5.10758,0.63854 -2.4497,-1.049 -0.47191,-0.55652 -0.50374,1.48726 -0.008,0.52562 -0.57303,-0.89543 -0.73383,-1.39592 -0.6733,-2.09552 -0.20826,-4.26331 0.49332,-6.26998 0.37724,-0.69455 0.68694,-1.43029 1.13173,-2.08364 0.83444,-1.22569 1.98365,-2.34256 3.19296,-3.19551 0.52563,-0.37074 1.0839,-0.7039 1.674,-0.95985 0.37362,-0.16206 1.20874,0.12487 1.1888,-0.2819 -0.0553,-1.12658 -0.90312,-2.06719 -1.35467,-3.10079 -0.18872,0.30907 -0.31192,0.66933 -0.56615,0.92723 -0.78484,0.79615 -2.72934,2.01803 -3.62242,2.50676 -2.27815,1.24669 -4.66861,2.08636 -7.28075,2.21857 -1.59402,-0.0459 -2.36116,0.0614 -3.84973,-0.43229 -0.37727,-0.12512 -1.06893,-0.94836 -1.05746,-0.55106 0.0256,0.88618 0.78631,1.59152 1.11131,2.41634 0.24937,0.63289 -1.44381,-2.51852 -0.74347,-1.90049 -0.0557,-0.41245 -0.125,-0.82329 -0.16708,-1.23735 -0.20941,-2.06036 -0.10314,-4.1565 -0.5379,-6.19141 -0.24156,-0.84355 -0.55828,-1.65704 -0.80827,-2.49753 -0.44323,-1.49012 -0.70647,-3.01757 -0.75861,-4.57436 0.009,-0.75648 -0.0177,-1.51422 0.0269,-2.26945 0.23203,-3.93469 1.2021,-7.97122 3.2183,-11.39345 0.54462,-0.92441 1.24078,-1.75073 1.86117,-2.62609 0.78957,-0.73682 1.5131,-1.55148 2.36871,-2.21046 3.20388,-2.46761 7.65964,-4.24425 11.76219,-3.65631 0.75814,0.10865 1.46824,0.4366 2.20236,0.65489 0.47123,0.35572 0.90696,1.37017 1.4137,1.06716 0.47253,-0.28255 -0.35429,-1.94386 -0.68441,-1.50324 -0.36504,0.48723 0.41317,1.15506 0.49309,1.75859 0.32966,2.4894 -0.36324,4.9994 -1.0708,7.35002 -0.92398,2.08583 -1.09443,2.86509 -2.51977,4.61783 -1.42208,1.74872 -3.26212,2.91098 -5.46082,3.40855 -0.64171,0.14522 -1.30649,0.15687 -1.95973,0.2353 -0.61797,-0.0221 -1.23797,-0.0118 -1.85393,-0.0663 -2.15012,-0.19046 -4.27104,-0.86717 -6.07129,-2.06462 -0.16174,-0.15217 -0.57787,-0.65834 -0.48521,-0.45652 0.45933,1.00038 1.0603,1.9295 1.60163,2.88799 0.075,0.13283 -0.15338,-0.266 -0.20238,-0.41046 -0.22819,-0.67268 -0.12155,-1.40682 -0.24893,-2.0953 -0.41464,-4.57567 -0.82091,-9.15576 -0.95187,-13.75017 0.002,-0.12313 -0.0337,-4.37176 0.29239,-5.01464 0.13336,-0.26294 0.57391,-0.13536 0.86065,-0.20396 0.81886,-0.19589 1.63684,-0.39742 2.46681,-0.5425 1.36498,-0.24126 2.74601,-0.46018 4.1367,-0.43336 0,0 -1.82812,-3.51819 -1.82812,-3.51819 z"
         inkscape:export-xdpi="5.4629016"
         inkscape:export-ydpi="5.4629016"
         inkscape:export-filename="/home/martin/PycharmProjects/new_game/images/friend_r.png" />
    </g>
  </g>
</svg>
