<?xml version="1.0" encoding="UTF-8" standalone="no"?>
<svg
   xmlns:dc="http://purl.org/dc/elements/1.1/"
   xmlns:cc="http://creativecommons.org/ns#"
   xmlns:rdf="http://www.w3.org/1999/02/22-rdf-syntax-ns#"
   xmlns:svg="http://www.w3.org/2000/svg"
   xmlns="http://www.w3.org/2000/svg"
   xmlns:sodipodi="http://sodipodi.sourceforge.net/DTD/sodipodi-0.dtd"
   xmlns:inkscape="http://www.inkscape.org/namespaces/inkscape"
   width="210mm"
   height="297mm"
   viewBox="0 0 210 297"
   version="1.1"
   id="svg8"
   inkscape:version="1.0.1 (3bc2e813f5, 2020-09-07)"
   sodipodi:docname="man.svg">
  <defs
     id="defs2" />
  <sodipodi:namedview
     id="base"
     pagecolor="#ffffff"
     bordercolor="#666666"
     borderopacity="1.0"
     inkscape:pageopacity="0.0"
     inkscape:pageshadow="2"
     inkscape:zoom="2.8"
     inkscape:cx="312.1235"
     inkscape:cy="615.49834"
     inkscape:document-units="mm"
     inkscape:current-layer="g142"
     inkscape:document-rotation="0"
     showgrid="false"
     inkscape:window-width="445"
     inkscape:window-height="729"
     inkscape:window-x="461"
     inkscape:window-y="10"
     inkscape:window-maximized="0" />
  <metadata
     id="metadata5">
    <rdf:RDF>
      <cc:Work
         rdf:about="">
        <dc:format>image/svg+xml</dc:format>
        <dc:type
           rdf:resource="http://purl.org/dc/dcmitype/StillImage" />
        <dc:title />
      </cc:Work>
    </rdf:RDF>
  </metadata>
  <g
     inkscape:label="Lag 1"
     inkscape:groupmode="layer"
     id="layer1">
    <g
       id="g142"
       inkscape:export-xdpi="26.940001"
       inkscape:export-ydpi="26.940001"
       transform="rotate(-90,85.142788,157.7396)">
      <g
         id="g67"
         inkscape:export-xdpi="26"
         inkscape:export-ydpi="26"
         transform="rotate(-90,85.117841,157.77113)">
        <circle
           style="fill:#803300;stroke-width:0.264583"
           id="path12"
           cx="85.117844"
           cy="158.43637"
           r="13.810056" />
        <circle
           style="fill:#ffccaa;stroke-width:0.264583"
           id="path14"
           cx="92.874863"
           cy="150.37964"
           r="4.9584174" />
        <circle
           style="fill:#ffccaa;stroke-width:0.264583"
           id="path14-3"
           cx="76.87822"
           cy="150.55345"
           r="4.9584174" />
        <circle
           style="fill:#000000;stroke-width:0.264583"
           id="path33"
           cx="78.213982"
           cy="149.60741"
           r="1.1038979" />
        <circle
           style="fill:#000000;stroke-width:0.264583"
           id="path33-6"
           cx="91.648964"
           cy="148.40881"
           r="1.1038979" />
        <path
           style="fill:#000000;stroke-width:0.264583"
           id="path52"
           d="m 86.855754,152.46389 c 0.505613,0.57304 0.968124,1.18167 1.487024,1.74302 0.479116,0.45621 0.968497,0.90204 1.457587,1.34771 0.404522,0.36401 0.780325,0.758 1.180746,1.12628 0.340077,0.34707 0.700778,0.66688 1.099844,0.94386 0.359804,0.24327 0.787177,0.35053 1.188712,0.50495 0,0 1.590185,-1.07122 1.590185,-1.07122 v 0 c -0.392261,-0.14007 -0.795774,-0.264 -1.159031,-0.47019 -0.402201,-0.26091 -0.779177,-0.55406 -1.111305,-0.90228 -0.399865,-0.36795 -0.772915,-0.76389 -1.171332,-1.13358 -0.492302,-0.44524 -1.04312,-0.82223 -1.508175,-1.29751 -0.503537,-0.5445 -0.995969,-1.11359 -1.350174,-1.76937 0,0 -1.704081,0.97833 -1.704081,0.97833 z" />
        <path
           style="fill:#000000;stroke-width:0.264583"
           id="path56"
           d="m 80.898475,152.14433 c -0.357973,0.41015 -0.690832,0.83635 -0.958347,1.31126 -0.298834,0.52748 -0.475515,1.11072 -0.688433,1.67575 -0.127069,0.36039 -0.26403,0.70671 -0.511061,1.00228 -0.203277,0.32333 -0.495311,0.55066 -0.779589,0.79503 -0.742252,0.41102 0.346662,-0.19006 1.286724,-0.7602 0.05292,-0.0321 -0.112668,0.0514 -0.170389,0.0738 -0.164336,0.0636 -0.330399,0.0959 -0.503473,0.12427 -0.288957,0.0496 -0.57326,-0.008 -0.85716,-0.057 -0.333783,-0.0826 -0.65827,-0.19549 -0.993013,-0.274 0,0 -1.568141,1.10292 -1.568141,1.10292 v 0 c 0.339665,0.0263 0.651378,0.13464 0.964851,0.26633 0.285573,0.11042 0.601088,0.13465 0.905838,0.11492 1.026401,-0.0816 1.900523,-0.7099 2.719441,-1.3139 0.29148,-0.24737 0.552891,-0.51646 0.766804,-0.83563 0.217752,-0.32084 0.349531,-0.67229 0.461886,-1.04258 0.193564,-0.55988 0.370584,-1.13216 0.68838,-1.6373 0.293081,-0.47707 0.647665,-0.90709 1.035153,-1.31099 0,0 -1.799471,0.76506 -1.799471,0.76506 z" />
        <path
           style="fill:#000000;stroke-width:0.264583"
           id="path72"
           d="m 73.574417,158.8555 c 0.986091,0.14768 1.957451,0.37961 2.929996,0.59646 0.234878,0.0546 0.469225,0.1115 0.70463,0.16376 0.257059,0.0571 0.51403,0.11493 0.7727,0.16418 1.356947,0.25834 2.73508,0.39809 4.10528,0.56434 1.903661,0.22236 3.790484,0.56202 5.666862,0.94826 1.132977,0.22811 2.263756,0.46668 3.391442,0.71964 0.374989,0.10293 0.75741,0.16872 1.142413,0.21936 0.288967,0.0385 0.580988,0.0264 0.871222,0.0487 0.109043,0.008 0.217723,0.0209 0.326586,0.0314 0.504066,0.0591 1.005247,0.13317 1.513007,0.14821 0.277042,-0.007 0.551534,0.0183 0.821745,0.0782 0.175961,0.0373 0.351721,0.0726 0.5255,0.1191 0.01802,0.003 0.03604,0.007 0.05407,0.01 0,0 0.560141,-0.39846 0.560141,-0.39846 v 0 c -0.01717,-2.2e-4 -0.03436,-5.3e-4 -0.05154,-7.9e-4 -0.180454,-0.0374 -0.361847,-0.0685 -0.541753,-0.10832 -0.28031,-0.0671 -0.568942,-0.0778 -0.856427,-0.0702 -0.519494,-0.003 -1.037138,-0.0374 -1.551599,-0.11309 -0.188958,-0.0268 -0.37732,-0.058 -0.566722,-0.0815 -0.190796,-0.0236 -0.383267,-0.0209 -0.574489,-0.0391 -0.406932,-0.0387 -0.810911,-0.1026 -1.215039,-0.16316 -1.178353,-0.17107 -2.347777,-0.39618 -3.51446,-0.63323 -0.723744,-0.12806 -0.830514,-0.15066 -1.576991,-0.2668 -1.404048,-0.21844 -2.814277,-0.39314 -4.221175,-0.59162 -1.04539,-0.14387 -2.093611,-0.27962 -3.131595,-0.4719 -0.634008,-0.11744 -0.987648,-0.20385 -1.603844,-0.35198 -0.232111,-0.0558 -0.463764,-0.11351 -0.695647,-0.17025 -0.914123,-0.22211 -1.829766,-0.44595 -2.725307,-0.73542 0,0 -0.559006,0.3842 -0.559006,0.3842 z" />
        <path
           style="fill:#000000;stroke-width:0.264583"
           id="path74"
           d="m 74.658304,159.66163 c 1.006297,0.36065 2.073526,0.50172 3.122879,0.67734 1.651633,0.25384 3.297838,0.53956 4.933715,0.88054 1.063403,0.22535 2.115264,0.49938 3.159662,0.79979 0.788757,0.23239 1.56913,0.49207 2.349926,0.74965 0.605073,0.19015 1.19951,0.41056 1.801296,0.61047 0.362146,0.12722 0.731465,0.23293 1.110851,0.29398 0.257582,0.0415 0.350528,0.045 0.612399,0.0685 0.483846,0.0441 0.968904,0.0587 1.454465,0.0564 0.45811,-5.3e-4 0.9154,0.0248 1.372621,0.0497 0.425831,-0.005 0.836676,0.0919 1.241999,0.21183 0.207508,0.0647 0.111014,0.0344 0.289529,0.0908 0,0 0.539234,-0.37152 0.539234,-0.37152 v 0 c -0.196911,-0.0396 -0.0918,-0.0163 -0.314881,-0.0719 -0.22947,-0.0587 -0.458319,-0.11978 -0.690152,-0.16869 -0.114422,-0.0241 -0.275315,-0.057 -0.396394,-0.0658 -0.04915,-0.004 -0.09857,-8e-4 -0.147857,-0.001 -0.465741,-0.002 -0.931267,-0.0116 -1.396513,-0.0345 -0.492345,-0.005 -0.985319,-1e-5 -1.476812,-0.0338 -0.248808,-0.0232 -0.357872,-0.0292 -0.603152,-0.0683 -0.377401,-0.0601 -0.74428,-0.16542 -1.105863,-0.28757 -0.608904,-0.20325 -1.21816,-0.4056 -1.833374,-0.58914 -0.789954,-0.25427 -1.578708,-0.51446 -2.379687,-0.73227 -1.068443,-0.28378 -2.141402,-0.55539 -3.22898,-0.75635 -1.669624,-0.30117 -3.350125,-0.53271 -5.022204,-0.81909 -0.302551,-0.0628 -0.606904,-0.11741 -0.907653,-0.18832 -0.474504,-0.11187 -0.827553,-0.21677 -1.272408,-0.38093 -0.189021,-0.0697 -0.367131,-0.14393 -0.542361,-0.24083 -0.03323,-0.0184 -0.06365,-0.0414 -0.09548,-0.0622 0,0 -0.574804,0.38344 -0.574804,0.38344 z" />
        <path
           style="fill:#000000;stroke-width:0.264583"
           id="path76"
           d="m 74.653507,160.73042 c 0.948634,0.17133 1.903534,0.30556 2.852383,0.47559 0.290478,0.0521 0.579906,0.10981 0.869857,0.16471 0.263954,0.0563 0.528894,0.10811 0.791866,0.16881 0.832271,0.1921 1.635977,0.46587 2.442856,0.74191 0.650833,0.21012 1.303702,0.41422 1.946217,0.64889 0.500459,0.20155 1.016719,0.35596 1.535348,0.50227 0.637013,0.18465 1.281797,0.34033 1.916467,0.53296 0.632481,0.18327 1.251291,0.40894 1.876935,0.61338 0.700834,0.22394 1.413219,0.41102 2.128343,0.58329 0.59989,0.14989 1.209037,0.1962 1.824331,0.21573 0.294458,0.007 0.589013,0.008 0.883531,0.006 0.194173,-0.006 0.385681,0.021 0.575567,0.0581 0,0 0.543774,-0.37961 0.543774,-0.37961 v 0 c -0.192204,-0.0358 -0.384048,-0.0703 -0.580414,-0.0717 -0.310475,0.01 -0.620622,0.0285 -0.931293,0.0319 -0.622599,0.002 -1.243867,-0.0385 -1.852401,-0.18031 -0.714166,-0.16405 -1.422199,-0.3519 -2.117312,-0.58506 -0.622382,-0.20235 -1.237285,-0.42706 -1.860685,-0.62648 -0.642311,-0.18342 -1.298163,-0.31603 -1.934769,-0.52022 -0.507777,-0.15979 -1.005427,-0.34919 -1.511167,-0.51543 -0.658794,-0.2199 -1.331003,-0.39707 -1.988471,-0.62151 -0.302054,-0.0954 -0.494871,-0.15919 -0.803307,-0.24462 -0.853553,-0.23643 -1.72521,-0.39785 -2.595102,-0.56045 -0.806878,-0.15607 -1.611701,-0.31354 -2.409946,-0.50997 -0.306375,-0.0754 -0.570511,-0.1406 -0.863341,-0.24377 -0.05983,-0.0211 -0.116935,-0.0492 -0.175403,-0.0738 0,0 -0.563864,0.38987 -0.563864,0.38987 z" />
        <path
           style="fill:#000000;stroke-width:0.264583"
           id="path78"
           d="m 74.406502,161.76855 c 0.569971,0.5439 1.329262,0.78033 2.054501,1.03818 0.946152,0.32389 1.917435,0.56088 2.889154,0.79224 0.955001,0.22738 1.912012,0.44605 2.86716,0.67282 1.314995,0.31162 2.626916,0.63619 3.929198,0.99742 0.876691,0.22833 1.741466,0.49677 2.605127,0.76923 0.65968,0.21329 1.310288,0.45269 1.959734,0.69493 0.253421,0.0947 0.510315,0.18678 0.778656,0.22897 0.15508,0.0244 0.219374,0.0238 0.379581,0.033 0.527214,0.005 1.053227,0.039 1.579507,0.0669 0.534453,0.0148 1.067679,0.0504 1.601081,0.085 0.217866,0.0157 0.435645,0.0325 0.653386,0.0498 0,0 0.513615,-0.36888 0.513615,-0.36888 v 0 c -0.226047,-0.007 -0.452073,-0.0155 -0.677728,-0.0312 -0.534384,-0.0402 -1.069218,-0.0674 -1.604901,-0.0835 -0.517893,-0.0271 -1.035318,-0.063 -1.553488,-0.0848 -0.401693,-0.0284 -0.797163,-0.0908 -1.178185,-0.22761 -0.667636,-0.22059 -1.329261,-0.45907 -2.000231,-0.66964 -0.87599,-0.27707 -1.763882,-0.51303 -2.654424,-0.73855 -1.34383,-0.33465 -2.694694,-0.63773 -4.051652,-0.91468 -1.92218,-0.40817 -3.866325,-0.77809 -5.704099,-1.49342 -0.634262,-0.28773 -1.37558,-0.56285 -1.781048,-1.16999 0,0 -0.604944,0.3538 -0.604944,0.3538 z" />
        <path
           style="fill:#000000;stroke-width:0.264583"
           id="path80"
           d="m 75.372787,163.98548 c 0.127876,0.0283 0.255241,0.059 0.38363,0.0849 0.491117,0.099 0.985078,0.18342 1.476902,0.27887 0.911762,0.17695 1.818925,0.37022 2.724406,0.57661 1.299993,0.30617 2.589861,0.65301 3.881676,0.99157 0.911548,0.24958 1.830946,0.46942 2.741078,0.72411 0.721209,0.22235 1.435047,0.46796 2.151033,0.70651 0.565142,0.20103 1.135176,0.3833 1.715757,0.53392 0.556167,0.13012 1.087358,0.33685 1.612691,0.55698 0.435356,0.15552 0.87186,0.31009 1.314273,0.44491 0.190539,0.06 0.38304,0.10375 0.581387,0.12531 0,0 0.550193,-0.39214 0.550193,-0.39214 v 0 c -0.204533,-0.0151 -0.406048,-0.0537 -0.60702,-0.0936 -0.453081,-0.10671 -0.89244,-0.25708 -1.325102,-0.42838 -0.537565,-0.20954 -1.087435,-0.38493 -1.641443,-0.54562 -0.579372,-0.17405 -1.166794,-0.32091 -1.740607,-0.51357 -0.721225,-0.24049 -1.43628,-0.50241 -2.172173,-0.6958 -0.925158,-0.24374 -1.852933,-0.47744 -2.78451,-0.6955 -1.328552,-0.31448 -2.650215,-0.65923 -3.991668,-0.91692 -0.758208,-0.15875 -1.052692,-0.2175 -1.81555,-0.38925 -0.739976,-0.1666 -1.490122,-0.32936 -2.206151,-0.58483 -0.105878,-0.0378 -0.206698,-0.0885 -0.310049,-0.13269 0,0 -0.538753,0.36459 -0.538753,0.36459 z" />
        <path
           style="fill:#000000;stroke-width:0.264583"
           id="path82"
           d="m 76.59608,165.58238 c 0.702226,0.67602 1.657686,0.95306 2.562082,1.24181 1.864397,0.48536 3.732448,0.95663 5.59916,1.43305 1.28369,0.32058 2.555957,0.68304 3.826913,1.05013 0.742381,0.20071 1.46368,0.46511 2.181547,0.73855 0.380402,0.14322 0.759421,0.29131 1.149647,0.40603 0.130209,0.0277 0.06707,0.016 0.189283,0.0358 0,0 0.549018,-0.38838 0.549018,-0.38838 v 0 c -0.125442,-0.0116 -0.06069,-0.004 -0.19418,-0.0234 -0.414349,-0.08 -0.814856,-0.21293 -1.211681,-0.35495 -0.207179,-0.0739 -0.412829,-0.15212 -0.620985,-0.22321 -0.536313,-0.18316 -1.086615,-0.32187 -1.632704,-0.47178 -1.310312,-0.34434 -2.627889,-0.65991 -3.946932,-0.96893 -1.246587,-0.29637 -2.493127,-0.58833 -3.731403,-0.91839 -0.319043,-0.085 -0.639006,-0.16695 -0.955987,-0.25937 -0.294045,-0.0857 -0.584497,-0.18335 -0.876748,-0.27502 -0.772186,-0.29252 -1.661863,-0.5832 -2.212485,-1.24046 -0.034,-0.0406 -0.06031,-0.087 -0.09047,-0.13056 0,0 -0.584076,0.34906 -0.584076,0.34906 z" />
        <path
           style="fill:#000000;stroke-width:0.264583"
           id="path84"
           d="m 76.516475,167.66 c 0.659744,0.20821 1.345285,0.31895 2.024303,0.4431 0.299683,0.0548 0.599446,0.10913 0.899168,0.1637 1.168191,0.21476 2.337263,0.42864 3.495479,0.69319 0.518454,0.11842 0.752626,0.18235 1.257023,0.31249 0.961466,0.2473 1.906566,0.55296 2.866972,0.80358 0.77234,0.17822 1.536303,0.3915 2.317374,0.52877 0.445667,0.0595 0.892625,0.12715 1.342445,0.1457 0.03209,-0.002 0.06417,-0.003 0.09626,-0.005 0,0 0.536858,-0.39898 0.536858,-0.39898 v 0 c -0.03368,0.006 -0.06736,0.0111 -0.101042,0.0166 -0.470625,0.0234 -0.943025,-0.0287 -1.409536,-0.0848 -0.790281,-0.12644 -1.567762,-0.31928 -2.346275,-0.50307 -0.977826,-0.2445 -1.942248,-0.53988 -2.92513,-0.76439 -0.57073,-0.1256 -0.72245,-0.16307 -1.313431,-0.2753 -1.176719,-0.22347 -2.359504,-0.41555 -3.530619,-0.66857 -0.886862,-0.19802 -1.824106,-0.36873 -2.635919,-0.79674 0,0 -0.573929,0.3894 -0.573929,0.3894 z" />
        <path
           style="fill:#000000;stroke-width:0.264583"
           id="path86"
           d="m 77.757593,169.38187 c 1.266365,0.0844 2.530764,0.21033 3.787635,0.38756 0.329255,0.0464 0.657323,0.10092 0.985983,0.15137 1.3574,0.20935 2.686928,0.55709 4.031279,0.83122 0.447601,0.0765 0.892852,0.17594 1.344075,0.23083 0.180224,0.0219 0.249949,0.0216 0.432099,0.03 0.262382,0.003 0.135824,0.003 0.379677,1.6e-4 0,0 0.513845,-0.37582 0.513845,-0.37582 v 0 c -0.25187,0.0129 -0.122021,0.008 -0.389567,0.0129 -0.627343,-0.0256 -1.25357,-0.0784 -1.873338,-0.18219 -1.094195,-0.18935 -2.179838,-0.42123 -3.277825,-0.58939 -0.303104,-0.0464 -0.606747,-0.0892 -0.910121,-0.13386 -0.57358,-0.0816 -1.453486,-0.20536 -2.023713,-0.29213 -0.73291,-0.11152 -1.472605,-0.21913 -2.19428,-0.39279 -0.08043,-0.0193 -0.158829,-0.0463 -0.238241,-0.0695 0,0 -0.567508,0.39166 -0.567508,0.39166 z" />
        <path
           style="fill:#000000;stroke-width:0.264583"
           id="path88"
           d="m 80.806876,171.41073 c 1.235914,0.13439 2.473648,0.25072 3.702484,0.44281 0.358151,0.056 0.714576,0.12247 1.071864,0.18371 0.914713,0.14626 1.810462,0.40549 2.733908,0.49821 0.32906,0.0331 0.491077,0.0299 0.815255,0.036 0.422945,-0.01 0.222015,-2e-4 0.602912,-0.0256 0,0 0.479007,-0.35497 0.479007,-0.35497 v 0 c -0.403395,0.0487 -0.191469,0.0287 -0.636085,0.0568 -0.322032,0.005 -0.524947,0.0124 -0.851842,-0.003 -0.981615,-0.0473 -1.950876,-0.22577 -2.922233,-0.36207 -0.711292,-0.11435 -1.478343,-0.23373 -2.186747,-0.36359 -0.319627,-0.0586 -0.637878,-0.12447 -0.956527,-0.18817 -0.432731,-0.0865 -0.690009,-0.13215 -1.091932,-0.24266 -0.0685,-0.0188 -0.135086,-0.0441 -0.202629,-0.0661 0,0 -0.557435,0.38901 -0.557435,0.38901 z" />
        <path
           style="fill:#000000;stroke-width:0.264583"
           id="path90"
           d="m 78.028868,158.58846 c 0.295092,0.0785 0.11258,0.0287 0.517908,0.14465 0.477579,0.13658 0.602354,0.17657 1.114923,0.30115 0.621546,0.15108 0.838192,0.18997 1.471287,0.32079 1.46975,0.29822 2.954631,0.51198 4.4406,0.71004 1.432174,0.18948 2.840958,0.516 4.256069,0.80041 1.072316,0.20288 2.141648,0.41977 3.224051,0.56224 0.616532,0.0785 1.237493,0.11426 1.857941,0.0748 0.309126,-0.0177 0.614574,-0.0627 0.918152,-0.12172 0.167727,-0.0317 0.326054,-0.0968 0.485915,-0.15447 0,0 0.518472,-0.4047 0.518472,-0.4047 v 0 c -0.159784,0.0571 -0.316383,0.12516 -0.482195,0.16332 -0.310224,0.0674 -0.623366,0.11816 -0.939649,0.14737 -0.64507,0.0664 -1.295249,0.066 -1.940671,-5.3e-4 -0.163584,-0.0182 -0.327591,-0.033 -0.490755,-0.0546 -0.424286,-0.0563 -0.620395,-0.0998 -1.043879,-0.17184 -0.582141,-0.099 -1.165706,-0.18985 -1.747517,-0.29091 -1.423961,-0.26078 -2.836498,-0.58528 -4.269843,-0.79371 -1.490099,-0.20048 -2.986762,-0.37044 -4.456814,-0.69473 -0.971545,-0.21657 -1.972297,-0.43168 -2.849581,-0.92195 0,0 -0.584414,0.38452 -0.584414,0.38452 z" />
        <path
           style="fill:#000000;stroke-width:0.264583"
           id="path92"
           d="m 81.873642,157.9814 c 1.26877,0.23306 2.533433,0.49002 3.801414,0.72822 0.508619,0.0941 1.239544,0.23132 1.757069,0.3195 0.245626,0.0418 0.49081,0.0874 0.737949,0.11908 0.239895,0.0308 0.481103,0.0513 0.722363,0.0683 0.51041,0.0361 0.839967,0.0334 1.348513,0.0403 0.821367,0.005 1.643488,0.0443 2.45755,0.15817 0.405379,0.0567 0.665398,0.11117 1.067448,0.18754 0.875787,0.1932 1.742763,0.42382 2.613594,0.63795 0.371938,0.0833 0.738161,0.19115 1.110179,0.27382 0.132339,0.023 0.06215,0.0152 0.210857,0.0207 0,0 0.538011,-0.3886 0.538011,-0.3886 v 0 c -0.13988,-0.002 -0.07179,0.002 -0.204316,-0.0129 -0.397878,-0.0586 -0.791308,-0.14429 -1.186524,-0.21796 -0.228595,-0.045 -0.520182,-0.10138 -0.744855,-0.15036 -0.646533,-0.14096 -1.285896,-0.31333 -1.934843,-0.44348 -0.178501,-0.034 -0.35625,-0.0721 -0.535506,-0.10186 -1.001633,-0.16607 -2.019477,-0.22322 -3.033627,-0.22278 -0.496684,-2.7e-4 -0.869784,0.006 -1.367923,-0.0221 -1.10727,-0.0625 -2.203272,-0.25332 -3.293123,-0.44869 -0.800417,-0.16315 -1.035103,-0.20095 -1.81515,-0.39819 -0.524735,-0.13269 -1.047059,-0.28139 -1.549381,-0.48502 -0.0437,-0.0177 -0.0854,-0.04 -0.128106,-0.06 0,0 -0.571593,0.39829 -0.571593,0.39829 z" />
        <circle
           style="fill:#502d16;stroke-width:0.264583"
           id="path96"
           cx="84.86972"
           cy="145.34846"
           r="2.3776615" />
      </g>
    </g>
  </g>
</svg>
